<?xml version="1.0" standalone="no"?>
<!DOCTYPE svg PUBLIC "-//W3C//DTD SVG 20010904//EN"
 "http://www.w3.org/TR/2001/REC-SVG-20010904/DTD/svg10.dtd">
<svg version="1.0" xmlns="http://www.w3.org/2000/svg"
 width="1024.000000pt" height="1024.000000pt" viewBox="0 0 1024.000000 1024.000000"
 preserveAspectRatio="xMidYMid meet">
<metadata>
Created by potrace 1.14, written by Peter Selinger 2001-2017
</metadata>
<g transform="translate(0.000000,1024.000000) scale(0.100000,-0.100000)"
fill="#000000" stroke="none">
<path d="M4376 9701 c-4 -7 -5 -15 -2 -18 9 -9 19 4 14 18 -4 11 -6 11 -12 0z"/>
<path d="M5027 8934 c-6 -6 -54 -11 -132 -15 -49 -2 -78 -16 -69 -32 5 -9 3
-8 -7 1 -15 14 -33 16 -25 3 6 -10 -24 -25 -32 -16 -3 3 0 5 6 5 7 0 12 5 12
11 0 13 -83 2 -88 -12 -2 -5 -8 -7 -13 -3 -12 7 -40 -21 -31 -32 4 -5 0 -3 -9
4 -14 10 -34 8 -108 -10 -61 -15 -90 -27 -86 -35 2 -7 0 -15 -5 -18 -6 -4 -10
0 -10 9 0 12 -6 13 -36 4 -20 -5 -55 -19 -77 -31 -22 -11 -51 -21 -64 -22 -14
0 -29 -9 -35 -18 -6 -11 -16 -16 -27 -12 -10 3 -29 -3 -44 -15 -14 -11 -32
-20 -41 -20 -9 0 -16 -8 -16 -17 0 -15 -2 -16 -10 -3 -8 12 -12 11 -30 -8 -11
-12 -27 -22 -35 -22 -7 0 -20 -6 -27 -13 -7 -7 -28 -19 -46 -26 -25 -10 -30
-17 -22 -26 9 -11 7 -12 -9 -8 -13 3 -30 -4 -48 -21 -15 -14 -33 -26 -40 -26
-7 0 -13 -5 -13 -11 0 -5 -4 -8 -9 -4 -5 3 -16 -3 -23 -13 -7 -11 -27 -26 -45
-36 -18 -9 -36 -22 -40 -30 -4 -7 -18 -18 -30 -25 -13 -6 -23 -19 -23 -27 0
-8 -4 -13 -8 -10 -11 6 -116 -93 -108 -102 4 -3 -7 -11 -24 -18 -16 -7 -30
-18 -30 -23 0 -15 -32 -51 -45 -51 -5 0 -20 -15 -32 -33 -12 -17 -38 -50 -58
-72 -19 -22 -35 -43 -35 -47 0 -4 -6 -13 -13 -20 -15 -16 -106 -149 -135 -198
-51 -88 -63 -114 -58 -127 3 -8 1 -11 -4 -8 -6 4 -20 -15 -31 -42 -21 -49 -43
-99 -73 -166 -10 -21 -19 -46 -21 -57 -2 -10 -8 -27 -13 -37 -6 -10 -12 -34
-15 -53 -5 -34 -11 -55 -27 -95 -11 -28 -30 -131 -34 -186 -1 -25 -6 -52 -11
-59 -5 -8 -9 -25 -10 -39 -6 -81 -19 -138 -36 -159 -17 -22 -17 -26 -3 -56 11
-24 12 -27 1 -13 -8 9 -20 17 -28 17 -8 0 -10 3 -4 8 6 4 11 15 11 25 2 16 -5
18 -55 16 -31 -2 -60 -5 -66 -8 -5 -3 -29 -6 -53 -7 -25 -1 -48 -8 -53 -15 -5
-8 -9 -9 -9 -4 0 6 -29 11 -64 12 -53 1 -66 -1 -69 -15 -4 -15 -5 -15 -6 1 -1
20 -14 22 -42 6 -15 -7 -24 -7 -33 0 -18 15 -119 -6 -113 -23 3 -7 -1 -13 -9
-13 -8 0 -14 4 -14 9 0 25 -131 -25 -143 -55 -7 -19 11 -57 26 -57 27 0 41 28
29 55 -13 28 -6 31 21 11 10 -8 13 -16 8 -17 -6 -2 -8 -14 -5 -25 6 -21 10
-22 210 -22 148 0 204 3 204 11 0 7 4 5 10 -3 10 -16 87 -23 96 -8 3 4 13 4
22 0 33 -16 90 -14 100 3 11 21 52 12 52 -11 0 -8 6 -17 13 -20 10 -4 12 -17
6 -52 -4 -31 -3 -49 5 -54 8 -6 7 -8 -2 -8 -15 0 -6 -71 11 -81 5 -4 4 -8 -3
-11 -10 -3 -10 -17 -1 -63 7 -33 15 -67 18 -75 3 -8 6 -33 7 -55 2 -22 7 -51
13 -65 17 -41 46 -139 46 -155 0 -8 4 -15 9 -15 4 0 8 -10 8 -23 0 -13 3 -27
8 -31 4 -4 7 -11 8 -14 4 -32 19 -62 31 -62 11 0 13 -7 9 -23 -3 -15 1 -31 12
-43 9 -10 17 -25 18 -31 2 -30 5 -34 14 -28 5 3 7 0 4 -9 -7 -17 65 -146 154
-276 36 -52 65 -100 65 -107 0 -7 4 -10 9 -7 4 3 8 1 8 -5 0 -5 17 -27 38 -49
55 -58 101 -112 96 -112 -3 0 11 -16 30 -36 21 -22 40 -33 47 -28 8 4 9 3 5
-4 -11 -18 61 -91 83 -85 10 3 22 0 25 -6 4 -6 0 -11 -10 -11 -16 0 -16 -2 1
-20 10 -12 25 -18 32 -16 7 3 13 -1 13 -8 0 -16 27 -29 42 -20 5 3 8 -2 6 -12
-2 -13 2 -18 15 -16 10 2 17 -3 17 -12 0 -8 16 -24 36 -37 20 -12 48 -33 62
-46 14 -13 32 -21 39 -19 7 3 12 0 10 -7 -1 -7 8 -12 21 -11 12 0 22 -5 22
-11 0 -15 97 -83 170 -120 30 -15 57 -30 60 -34 3 -3 12 -7 20 -9 8 -2 40 -16
71 -32 32 -16 59 -26 62 -24 3 3 19 -2 37 -11 18 -9 39 -18 48 -21 10 -2 62
-17 117 -34 55 -16 120 -32 145 -35 24 -3 69 -12 100 -20 30 -8 65 -12 78 -9
12 4 22 2 22 -4 0 -11 59 -15 280 -15 208 0 321 9 380 30 8 3 26 7 40 9 96 11
182 33 175 44 -3 5 3 6 12 4 16 -4 157 44 263 89 19 8 60 25 90 38 92 40 390
220 390 236 0 2 -4 1 -10 -2 -5 -3 -10 -4 -10 -1 0 3 18 15 40 26 22 11 46 29
52 40 7 11 18 20 24 20 7 0 22 13 35 29 13 16 27 27 31 25 4 -3 8 2 8 10 0 10
6 13 17 9 12 -5 15 -2 11 9 -4 9 4 21 23 32 16 10 29 26 29 37 0 13 7 19 21
19 13 0 19 5 17 13 -3 6 8 24 24 39 15 15 28 23 28 18 0 -6 5 -10 11 -10 6 0
8 9 4 20 -3 11 -2 20 3 20 14 0 52 36 52 50 0 7 -10 1 -21 -14 -12 -15 -23
-25 -26 -22 -8 8 37 51 54 51 9 0 18 7 20 15 4 13 3 13 -6 0 -6 -8 -11 -10
-11 -5 0 6 8 18 19 27 10 8 21 22 25 29 5 11 7 11 12 1 3 -6 10 -9 15 -6 6 4
6 10 0 18 -7 8 -1 26 20 59 16 26 26 47 23 47 -3 0 9 18 26 40 17 22 37 37 43
33 7 -4 8 0 4 11 -4 11 1 29 13 46 11 15 20 33 20 38 0 6 5 12 11 14 5 2 12
10 14 18 7 35 18 60 24 60 3 0 12 9 18 20 11 16 10 18 -2 14 -8 -4 -15 -3 -15
1 0 10 30 38 30 28 1 -4 7 10 15 32 8 22 13 46 10 53 -2 6 3 12 11 12 11 0 13
6 9 19 -4 13 2 26 16 40 19 18 20 22 8 38 -9 11 -10 14 -1 9 6 -4 12 -4 13 1
3 43 10 67 19 73 6 4 8 14 4 23 -3 10 0 24 7 33 10 13 10 17 -2 25 -8 5 -9 9
-2 9 6 0 17 26 23 58 6 31 13 67 16 80 2 12 1 21 -3 20 -8 -3 -13 5 -13 22 0
5 6 9 13 7 8 -1 12 12 12 41 0 23 4 42 9 42 4 0 3 6 -3 14 -8 10 -7 23 5 51
14 34 14 37 0 32 -9 -4 -16 -2 -16 2 0 5 6 11 13 14 6 2 9 8 5 12 -4 4 -14 2
-23 -5 -10 -8 -15 -9 -15 -1 0 6 5 11 11 11 5 0 7 5 4 10 -3 6 -1 10 4 10 8 0
7 7 -1 19 -9 15 -15 17 -25 9 -9 -7 -13 -7 -13 1 0 6 6 13 13 16 18 5 129 16
152 15 24 -2 -3 -3 305 5 236 6 338 10 415 17 27 3 30 7 33 41 2 20 -1 37 -6
37 -5 0 -9 12 -9 26 0 15 -7 30 -14 35 -20 12 -102 11 -94 -1 9 -15 -4 -12
-21 5 -11 11 -39 15 -102 15 -48 1 -121 3 -162 5 -41 2 -127 6 -190 9 -63 4
-147 9 -187 12 l-72 6 -7 99 c-3 54 -10 99 -14 99 -3 0 -5 14 -2 30 2 17 -3
52 -12 80 -9 27 -15 53 -14 57 5 19 -37 185 -48 190 -7 2 -11 10 -8 17 4 11
-13 64 -57 174 -5 12 -17 22 -26 23 -17 0 -17 1 -1 7 15 6 10 21 -39 117 -63
125 -125 233 -146 255 -8 8 -22 29 -30 46 -18 35 -47 53 -47 29 0 -8 -4 -15
-10 -15 -14 0 -13 23 2 38 9 9 0 25 -35 71 -75 95 -161 181 -181 181 -12 0
-16 5 -12 15 6 17 -6 30 -57 65 -20 14 -37 29 -37 33 0 5 -5 5 -12 1 -6 -4 -8
-3 -5 3 9 14 -19 37 -33 28 -5 -3 -10 0 -10 9 0 16 -127 116 -147 116 -7 0
-13 7 -13 15 0 8 -4 15 -10 15 -5 0 -13 0 -17 1 -14 1 -78 42 -85 55 -4 6 -28
17 -52 24 -25 7 -47 18 -50 26 -3 8 -11 14 -18 14 -7 0 -34 11 -60 25 -26 14
-53 25 -60 25 -8 0 -30 8 -50 18 -20 11 -69 29 -110 42 -40 12 -95 30 -123 40
-27 9 -66 20 -85 24 -42 7 -55 10 -150 29 -112 23 -161 28 -323 32 -81 2 -151
6 -156 9 -4 3 -11 3 -14 0z m71 -87 c5 -24 -15 -21 -21 4 -3 13 -1 19 6 16 7
-2 13 -11 15 -20z m392 19 c0 -3 -4 -8 -10 -11 -5 -3 -10 -1 -10 4 0 6 5 11
10 11 6 0 10 -2 10 -4z m-686 -30 c-3 -9 -10 -16 -15 -16 -5 0 -4 9 3 20 14
22 21 20 12 -4z m146 16 c0 -5 -7 -9 -15 -9 -8 0 -12 4 -9 9 3 4 9 8 15 8 5 0
9 -4 9 -8z m-200 -17 c-7 -8 -18 -15 -24 -15 -6 0 -2 7 8 15 25 19 32 19 16 0z
m90 5 c0 -5 -5 -10 -11 -10 -5 0 -7 5 -4 10 3 6 8 10 11 10 2 0 4 -4 4 -10z
m180 0 c0 -5 -2 -10 -4 -10 -3 0 -8 5 -11 10 -3 6 -1 10 4 10 6 0 11 -4 11
-10z m-133 -32 c-3 -8 -6 -5 -6 6 -1 11 2 17 5 13 3 -3 4 -12 1 -19z m70 0
c-3 -8 -6 -5 -6 6 -1 11 2 17 5 13 3 -3 4 -12 1 -19z m-103 1 c3 -3 -6 -5 -19
-5 -14 0 -25 4 -25 8 0 8 36 6 44 -3z m-54 -9 c0 -5 -7 -10 -16 -10 -8 0 -12
5 -9 10 3 6 10 10 16 10 5 0 9 -4 9 -10z m225 -8 c-3 -3 -11 0 -18 7 -9 10 -8
11 6 5 10 -3 15 -9 12 -12z m-305 -1 c0 -6 -4 -13 -10 -16 -5 -3 -10 1 -10 9
0 9 5 16 10 16 6 0 10 -4 10 -9z m650 -11 c0 -5 -4 -10 -10 -10 -5 0 -10 5
-10 10 0 6 5 10 10 10 6 0 10 -4 10 -10z m-817 -20 c3 -11 1 -20 -4 -20 -5 0
-9 9 -9 20 0 11 2 20 4 20 2 0 6 -9 9 -20z m97 10 c0 -5 -4 -10 -10 -10 -5 0
-10 5 -10 10 0 6 5 10 10 10 6 0 10 -4 10 -10z m35 0 c3 -5 2 -10 -4 -10 -5 0
-13 5 -16 10 -3 6 -2 10 4 10 5 0 13 -4 16 -10z m155 6 c0 -3 -4 -8 -10 -11
-5 -3 -10 -1 -10 4 0 6 5 11 10 11 6 0 10 -2 10 -4z m-427 -21 c-3 -9 -8 -14
-10 -11 -3 3 -2 9 2 15 9 16 15 13 8 -4z m117 5 c0 -5 -5 -10 -11 -10 -5 0 -7
5 -4 10 3 6 8 10 11 10 2 0 4 -4 4 -10z m370 0 c0 -5 -5 -10 -11 -10 -5 0 -7
5 -4 10 3 6 8 10 11 10 2 0 4 -4 4 -10z m135 0 c-3 -5 -12 -10 -18 -10 -7 0
-6 4 3 10 19 12 23 12 15 0z m592 -12 c-3 -8 -6 -5 -6 6 -1 11 2 17 5 13 3 -3
4 -12 1 -19z m204 7 c11 6 11 5 2 -5 -12 -14 -33 -6 -33 13 0 8 3 7 9 -2 5 -8
14 -10 22 -6z m-1442 -46 c-18 -11 -19 -8 -12 20 5 21 7 21 16 6 6 -12 5 -20
-4 -26z m354 24 c-9 -24 -34 -42 -58 -43 -17 0 -17 2 5 17 14 9 29 23 33 30
12 19 27 16 20 -4z m-193 -12 c0 -17 -18 -21 -24 -6 -3 9 0 15 9 15 8 0 15 -4
15 -9z m390 -1 c0 -5 -5 -10 -11 -10 -5 0 -7 5 -4 10 3 6 8 10 11 10 2 0 4 -4
4 -10z m40 -6 c0 -8 -5 -12 -10 -9 -6 4 -8 11 -5 16 9 14 15 11 15 -7z m60 7
c0 -6 -4 -13 -10 -16 -5 -3 -10 1 -10 9 0 9 5 16 10 16 6 0 10 -4 10 -9z
m-717 -43 c-9 -15 -23 -8 -23 12 0 17 2 19 14 8 8 -7 12 -16 9 -20z m1358 -1
c-8 -8 -11 -7 -11 4 0 9 3 19 7 23 4 4 9 2 11 -4 3 -7 -1 -17 -7 -23z m-1394
-10 c-5 -42 -15 -59 -29 -51 -7 5 -5 12 6 20 10 7 15 17 12 22 -6 10 2 42 10
42 3 0 3 -15 1 -33z m130 16 c-9 -9 -20 -13 -24 -9 -4 4 -1 11 7 16 25 16 35
11 17 -7z m643 13 c0 -3 -4 -8 -10 -11 -5 -3 -10 -1 -10 4 0 6 5 11 10 11 6 0
10 -2 10 -4z m-826 -15 c3 -5 -1 -12 -10 -15 -20 -8 -29 -1 -19 13 8 13 22 14
29 2z m1700 -21 c-6 -6 -10 -3 -10 10 0 13 4 16 10 10 7 -7 7 -13 0 -20z
m-1417 -12 c-3 -8 -6 -5 -6 6 -1 11 2 17 5 13 3 -3 4 -12 1 -19z m-72 2 c-3
-5 -12 -10 -18 -10 -7 0 -6 4 3 10 19 12 23 12 15 0z m55 0 c0 -5 -2 -10 -4
-10 -3 0 -8 5 -11 10 -3 6 -1 10 4 10 6 0 11 -4 11 -10z m-100 -10 c-8 -5 -19
-10 -25 -10 -5 0 -3 5 5 10 8 5 20 10 25 10 6 0 3 -5 -5 -10z m798 -3 c14 -6
28 -4 37 3 10 8 19 8 33 1 29 -15 159 -23 182 -11 12 6 20 7 20 1 0 -5 -6 -11
-12 -14 -7 -2 6 -7 29 -11 23 -4 47 -5 53 -1 5 3 10 2 10 -3 0 -5 19 -13 43
-17 54 -10 50 -9 62 -17 6 -3 28 -10 50 -14 22 -4 53 -15 69 -25 24 -15 33
-16 45 -6 10 8 12 8 8 1 -4 -7 6 -17 26 -24 17 -8 40 -20 49 -27 9 -8 27 -14
40 -13 44 4 57 0 63 -19 3 -10 17 -22 31 -25 13 -4 33 -15 43 -25 17 -17 20
-18 26 -3 5 13 8 12 21 -6 8 -12 24 -22 35 -22 11 0 23 -10 28 -22 5 -13 11
-22 15 -20 3 1 15 2 27 2 16 0 19 -4 14 -21 -6 -18 -4 -21 13 -17 14 4 27 -2
42 -19 12 -14 28 -22 36 -19 8 3 13 2 9 -3 -3 -5 13 -24 35 -41 22 -17 40 -29
40 -25 0 3 5 3 11 -1 8 -4 7 -9 -2 -15 -10 -6 -7 -10 12 -17 34 -13 199 -181
211 -214 6 -18 17 -28 29 -28 12 0 24 -11 30 -27 6 -15 20 -36 31 -47 11 -10
33 -38 48 -62 15 -24 30 -41 33 -38 3 3 8 0 13 -7 4 -8 3 -10 -4 -5 -17 10
-15 -10 3 -27 8 -8 26 -39 40 -68 14 -30 32 -65 40 -79 27 -45 54 -113 95
-240 23 -69 44 -132 47 -140 3 -8 5 -23 4 -33 -1 -10 4 -28 12 -41 8 -12 18
-43 21 -69 8 -54 15 -77 26 -77 4 0 5 -12 2 -26 -6 -35 17 -77 40 -71 17 5 23
-5 19 -27 -1 -5 5 -4 13 3 12 10 13 18 5 32 -6 13 -6 19 0 19 6 0 15 -9 21
-20 6 -12 7 -20 1 -20 -5 0 -7 -8 -4 -19 4 -15 0 -18 -20 -14 -13 3 -38 -2
-54 -11 -17 -8 -33 -13 -36 -9 -4 3 -14 2 -24 -2 -21 -9 -42 -12 -106 -16 -67
-4 -72 -12 -69 -131 l2 -58 92 4 c50 2 102 0 114 -4 25 -10 40 -40 23 -51 -6
-4 -8 -12 -4 -19 5 -8 4 -11 -2 -7 -7 4 -12 -13 -16 -46 -2 -29 0 -55 5 -58 6
-4 6 -9 1 -12 -5 -3 -15 -39 -23 -79 -7 -40 -16 -89 -21 -108 -21 -93 -40
-161 -48 -177 -5 -10 -19 -53 -32 -95 -13 -43 -27 -78 -31 -78 -5 0 -8 -5 -8
-11 0 -15 -50 -130 -65 -149 -6 -8 -18 -31 -25 -50 -32 -80 -129 -223 -233
-343 -33 -38 -46 -60 -41 -73 4 -13 3 -15 -3 -6 -7 9 -28 -6 -83 -58 -40 -38
-76 -70 -81 -70 -4 0 -27 -16 -51 -35 -76 -61 -92 -74 -133 -101 -56 -38 -127
-80 -215 -126 -41 -22 -77 -44 -78 -49 -2 -5 -8 -7 -13 -3 -5 3 -15 2 -21 -2
-7 -5 -21 -9 -32 -10 -11 0 -22 -6 -24 -12 -2 -7 -12 -12 -22 -12 -10 0 -48
-11 -84 -25 -37 -14 -77 -25 -91 -25 -13 0 -26 -4 -29 -9 -4 -5 -29 -12 -56
-16 -28 -4 -50 -11 -50 -17 0 -5 -4 -7 -9 -4 -5 3 -33 1 -62 -6 -30 -6 -77
-12 -105 -13 -28 -1 -55 -4 -60 -7 -12 -7 -304 -1 -374 8 -30 3 -71 7 -90 8
-19 1 -39 4 -45 8 -5 3 -59 18 -120 33 -195 48 -453 161 -568 249 -19 14 -37
26 -40 26 -4 0 -43 28 -87 63 -44 34 -97 74 -118 89 -50 35 -182 164 -182 178
0 5 -4 10 -9 10 -23 0 -109 104 -206 248 -20 30 -45 64 -56 75 -24 25 -140
262 -159 325 -7 23 -17 42 -23 42 -5 0 -7 10 -3 23 3 13 -1 32 -9 44 -8 12
-12 29 -9 38 4 9 3 20 -3 24 -10 6 -52 168 -55 214 -1 15 -5 27 -8 27 -9 0
-19 457 -10 466 4 4 6 27 13 164 1 25 8 51 15 58 6 7 13 27 13 43 2 34 0 25
28 119 40 133 62 195 74 202 9 6 8 11 -3 18 -8 5 -10 10 -5 10 13 0 36 50 29
61 -3 5 -1 9 3 9 5 0 16 15 25 33 24 48 48 104 48 112 0 3 13 20 30 38 16 18
30 39 30 47 0 8 7 24 15 34 8 10 12 23 9 27 -3 5 1 9 10 9 8 0 24 16 36 36 12
19 33 42 46 51 13 8 24 21 24 29 0 7 9 20 21 28 12 8 18 19 14 25 -3 7 -3 11
2 10 19 -3 33 2 33 11 0 6 16 26 35 46 19 19 35 33 35 30 0 -3 27 22 60 56 33
33 60 56 60 52 0 -4 14 8 31 27 16 19 34 35 40 35 5 1 14 2 19 3 6 0 10 11 10
24 0 15 3 18 9 9 6 -10 15 -6 39 16 17 16 33 27 36 25 2 -3 12 7 21 21 10 14
21 23 26 20 9 -5 59 23 70 40 4 5 12 5 18 2 6 -4 14 -1 16 7 3 7 21 20 40 27
19 8 35 17 35 20 0 4 37 21 83 39 45 18 96 40 114 47 17 8 45 17 62 20 19 4
31 13 31 23 0 12 2 13 8 3 6 -9 16 -10 40 -1 33 11 41 24 20 32 -10 4 -10 6 0
6 7 1 15 -5 18 -13 4 -11 19 -10 82 5 42 11 89 19 104 19 15 0 29 4 32 9 3 5
28 7 56 6 27 -2 48 0 46 4 -6 9 245 7 272 -2z m-1042 -12 c-8 -8 -18 -15 -22
-15 -3 0 -1 7 6 15 7 8 17 15 22 15 5 0 3 -7 -6 -15z m264 -5 c0 -5 -5 -10
-11 -10 -5 0 -7 5 -4 10 3 6 8 10 11 10 2 0 4 -4 4 -10z m1500 0 c0 -5 -5 -10
-11 -10 -5 0 -7 5 -4 10 3 6 8 10 11 10 2 0 4 -4 4 -10z m-1804 -26 c-4 -9 -9
-15 -11 -12 -3 3 -3 13 1 22 4 9 9 15 11 12 3 -3 3 -13 -1 -22z m1854 11 c0
-8 -4 -15 -10 -15 -5 0 -7 7 -4 15 4 8 8 15 10 15 2 0 4 -7 4 -15z m-1755 -5
c-3 -5 -1 -10 4 -10 6 0 11 -4 11 -10 0 -5 -7 -10 -15 -10 -15 0 -21 21 -8 33
10 10 15 8 8 -3z m1999 -6 c5 -14 4 -15 -9 -4 -17 14 -19 20 -6 20 5 0 12 -7
15 -16z m-2154 -4 c0 -5 -7 -10 -15 -10 -9 0 -18 -7 -21 -15 -4 -8 -16 -15
-28 -15 -21 1 -21 1 -1 12 11 6 22 14 25 18 4 6 19 14 38 19 1 1 2 -3 2 -9z
m95 0 c3 -5 1 -10 -4 -10 -6 0 -11 5 -11 10 0 6 2 10 4 10 3 0 8 -4 11 -10z
m125 -10 c0 -5 -2 -10 -4 -10 -3 0 -8 5 -11 10 -3 6 -1 10 4 10 6 0 11 -4 11
-10z m35 0 c-3 -5 -12 -10 -18 -10 -7 0 -6 4 3 10 19 12 23 12 15 0z m1552 4
c-3 -3 -12 -4 -19 -1 -8 3 -5 6 6 6 11 1 17 -2 13 -5z m243 -14 c0 -5 -2 -10
-4 -10 -3 0 -8 5 -11 10 -3 6 -1 10 4 10 6 0 11 -4 11 -10z m-247 -15 c-3 -9
-8 -14 -10 -11 -3 3 -2 9 2 15 9 16 15 13 8 -4z m-1609 -20 c-4 -8 -12 -15
-20 -15 -8 0 -11 6 -8 15 4 8 12 15 20 15 8 0 11 -6 8 -15z m-214 -5 c0 -5 -4
-10 -10 -10 -5 0 -10 5 -10 10 0 6 5 10 10 10 6 0 10 -4 10 -10z m2276 -10 c0
-12 -4 -16 -9 -11 -5 5 -6 14 -3 20 10 15 12 14 12 -9z m-2203 -13 c-2 -4 -10
-7 -16 -6 -18 3 -50 -13 -64 -30 -7 -10 -12 -11 -13 -4 0 17 51 51 76 49 12 0
20 -4 17 -9z m-170 -10 c7 3 9 3 5 -2 -4 -4 -3 -14 3 -22 17 -20 2 -16 -20 6
-11 11 -16 22 -13 26 4 3 8 1 10 -4 2 -6 9 -8 15 -4z m62 -16 c-3 -6 -11 -11
-17 -11 -6 0 -6 6 2 15 14 17 26 13 15 -4z m1920 9 c3 -5 1 -10 -4 -10 -6 0
-11 5 -11 10 0 6 2 10 4 10 3 0 8 -4 11 -10z m395 -14 c0 -2 -7 -7 -16 -10 -8
-3 -12 -2 -9 4 6 10 25 14 25 6z m-2456 -27 c3 1 6 -1 6 -4 0 -3 0 -10 0 -16
0 -8 -5 -8 -15 1 -8 7 -15 9 -15 5 0 -5 -2 -6 -5 -3 -3 3 -2 13 1 22 5 12 9
14 14 6 4 -6 10 -11 14 -11z m2276 1 c0 -5 -2 -10 -4 -10 -3 0 -8 5 -11 10 -3
6 -1 10 4 10 6 0 11 -4 11 -10z m65 -10 c3 -5 2 -10 -4 -10 -5 0 -13 5 -16 10
-3 6 -2 10 4 10 5 0 13 -4 16 -10z m-2193 -32 c-7 -7 -12 -8 -12 -2 0 14 12
26 19 19 2 -3 -1 -11 -7 -17z m2323 2 c3 -5 1 -10 -4 -10 -6 0 -11 5 -11 10 0
6 2 10 4 10 3 0 8 -4 11 -10z m105 0 c0 -5 -5 -10 -11 -10 -5 0 -7 5 -4 10 3
6 8 10 11 10 2 0 4 -4 4 -10z m-2666 -35 c-30 -27 -39 -32 -28 -12 15 26 27
37 41 37 9 0 4 -9 -13 -25z m2742 -3 c-17 -16 -18 -16 -5 5 7 12 15 20 18 17
3 -2 -3 -12 -13 -22z m-2576 -12 c0 -5 -5 -10 -11 -10 -5 0 -7 5 -4 10 3 6 8
10 11 10 2 0 4 -4 4 -10z m2601 -23 c-10 -9 -11 -8 -5 6 3 10 9 15 12 12 3 -3
0 -11 -7 -18z m-51 3 c0 -5 -5 -10 -11 -10 -5 0 -7 5 -4 10 3 6 8 10 11 10 2
0 4 -4 4 -10z m73 -41 c-4 -16 -8 -17 -14 -7 -13 19 -11 28 5 28 9 0 12 -7 9
-21z m77 -18 c7 -14 6 -19 -3 -17 -21 3 -38 17 -32 27 10 15 23 11 35 -10z
m-79 -44 c-10 -9 -11 -8 -5 6 3 10 9 15 12 12 3 -3 0 -11 -7 -18z m162 3 c-3
-11 -9 -17 -15 -14 -5 3 -4 12 3 20 16 19 18 18 12 -6z m-3093 1 c0 -5 -7 -11
-14 -14 -10 -4 -13 -1 -9 9 6 15 23 19 23 5z m3124 -27 c3 -8 2 -12 -4 -9 -6
3 -10 10 -10 16 0 14 7 11 14 -7z m-119 -14 c3 -5 1 -10 -4 -10 -6 0 -11 5
-11 10 0 6 2 10 4 10 3 0 8 -4 11 -10z m-2935 -30 c0 -5 -5 -10 -11 -10 -5 0
-7 5 -4 10 3 6 8 10 11 10 2 0 4 -4 4 -10z m2990 0 c0 -5 -5 -10 -11 -10 -5 0
-7 5 -4 10 3 6 8 10 11 10 2 0 4 -4 4 -10z m-55 -30 c-3 -5 -12 -10 -18 -10
-7 0 -6 4 3 10 19 12 23 12 15 0z m125 -10 c-16 -11 -40 -13 -40 -5 0 8 44 24
50 18 2 -2 -2 -8 -10 -13z m-60 -4 c0 -3 -4 -8 -10 -11 -5 -3 -10 -1 -10 4 0
6 5 11 10 11 6 0 10 -2 10 -4z m169 -43 c7 -14 8 -24 1 -28 -11 -7 -31 35 -23
48 6 10 7 9 22 -20z m-3444 -23 c3 -5 1 -10 -4 -10 -6 0 -11 5 -11 10 0 6 2
10 4 10 3 0 8 -4 11 -10z m3300 -8 c-3 -3 -11 0 -18 7 -9 10 -8 11 6 5 10 -3
15 -9 12 -12z m-110 -2 c3 -6 -1 -7 -9 -4 -18 7 -21 14 -7 14 6 0 13 -4 16
-10z m219 -17 c3 -10 9 -25 12 -33 4 -8 0 -6 -8 4 -8 10 -20 16 -26 13 -6 -5
-8 0 -5 13 7 25 19 26 27 3z m-153 -26 c-10 -9 -11 -8 -5 6 3 10 9 15 12 12 3
-3 0 -11 -7 -18z m69 -7 c0 -5 -5 -10 -11 -10 -5 0 -7 5 -4 10 3 6 8 10 11 10
2 0 4 -4 4 -10z m54 -19 c-2 -3 -12 3 -22 13 -16 17 -16 18 5 5 12 -7 20 -15
17 -18z m76 19 c0 -5 -5 -10 -11 -10 -5 0 -7 5 -4 10 3 6 8 10 11 10 2 0 4 -4
4 -10z m-155 -20 c3 -5 1 -10 -4 -10 -6 0 -11 5 -11 10 0 6 2 10 4 10 3 0 8
-4 11 -10z m-3353 -42 c-7 -7 -12 -8 -12 -2 0 14 12 26 19 19 2 -3 -1 -11 -7
-17z m3332 6 c3 -8 2 -12 -4 -9 -6 3 -10 10 -10 16 0 14 7 11 14 -7z m141 -3
c-3 -6 -11 -11 -16 -11 -5 0 -4 6 3 14 14 16 24 13 13 -3z m95 -47 c0 -2 -9 0
-20 6 -11 6 -20 13 -20 16 0 2 9 0 20 -6 11 -6 20 -13 20 -16z m-156 1 c-4 -8
-11 -15 -16 -15 -6 0 -5 6 2 15 7 8 14 15 16 15 2 0 1 -7 -2 -15z m138 -47
c-7 -7 -12 -8 -12 -2 0 14 12 26 19 19 2 -3 -1 -11 -7 -17z m-3662 -52 c0 -3
-4 -8 -10 -11 -5 -3 -10 -1 -10 4 0 6 5 11 10 11 6 0 10 -2 10 -4z m3610 -6
c0 -5 -4 -10 -10 -10 -5 0 -10 5 -10 10 0 6 5 10 10 10 6 0 10 -4 10 -10z
m148 -26 c-4 -3 -12 5 -18 18 -12 22 -12 22 6 6 10 -10 15 -20 12 -24z m-23
-164 c3 -5 -1 -10 -9 -10 -9 0 -16 5 -16 10 0 6 4 10 9 10 6 0 13 -4 16 -10z
m152 -87 c-3 -10 -5 -4 -5 12 0 17 2 24 5 18 2 -7 2 -21 0 -30z m-3997 7 c0
-5 -5 -10 -11 -10 -5 0 -7 5 -4 10 3 6 8 10 11 10 2 0 4 -4 4 -10z m4097 -228
c-10 -10 -14 -22 -10 -25 3 -4 1 -7 -5 -7 -17 0 -15 16 4 34 22 22 31 20 11
-2z m-4187 -12 c0 -5 -5 -10 -11 -10 -5 0 -7 5 -4 10 3 6 8 10 11 10 2 0 4 -4
4 -10z m4110 -26 c0 -8 -4 -12 -10 -9 -5 3 -10 10 -10 16 0 5 5 9 10 9 6 0 10
-7 10 -16z m40 6 c0 -5 -4 -10 -10 -10 -5 0 -10 5 -10 10 0 6 5 10 10 10 6 0
10 -4 10 -10z m-4240 -14 c0 -3 -4 -8 -10 -11 -5 -3 -10 -1 -10 4 0 6 5 11 10
11 6 0 10 -2 10 -4z m4115 -44 c-3 -3 -11 0 -18 7 -9 10 -8 11 6 5 10 -3 15
-9 12 -12z m147 -64 c13 -13 17 -17 7 -10 -9 7 -23 10 -31 7 -9 -4 -15 0 -15
10 0 21 12 19 39 -7z m-114 1 c-2 -6 -8 -10 -13 -10 -5 0 -11 4 -13 10 -2 6 4
11 13 11 9 0 15 -5 13 -11z m62 -19 c0 -5 -4 -10 -10 -10 -5 0 -10 5 -10 10 0
6 5 10 10 10 6 0 10 -4 10 -10z m90 -55 c0 -9 -6 -12 -15 -9 -8 4 -15 10 -15
15 0 5 7 9 15 9 8 0 15 -7 15 -15z m-110 -5 c0 -5 -2 -10 -4 -10 -3 0 -8 5
-11 10 -3 6 -1 10 4 10 6 0 11 -4 11 -10z m60 -10 c0 -5 -2 -10 -4 -10 -3 0
-8 5 -11 10 -3 6 -1 10 4 10 6 0 11 -4 11 -10z m81 -17 c13 -16 12 -17 -3 -4
-10 7 -18 15 -18 17 0 8 8 3 21 -13z m-21 -19 c0 -21 -17 -17 -23 5 -3 14 -1
18 9 14 8 -3 14 -11 14 -19z m-4230 -24 c0 -5 -4 -10 -10 -10 -5 0 -10 5 -10
10 0 6 5 10 10 10 6 0 10 -4 10 -10z m4190 -9 c0 -12 -20 -25 -27 -18 -7 7 6
27 18 27 5 0 9 -4 9 -9z m-72 -56 c-3 -3 -9 2 -12 12 -6 14 -5 15 5 6 7 -7 10
-15 7 -18z m122 5 c0 -5 -5 -10 -11 -10 -5 0 -7 5 -4 10 3 6 8 10 11 10 2 0 4
-4 4 -10z m-4330 -24 c0 -3 -4 -8 -10 -11 -5 -3 -10 -1 -10 4 0 6 5 11 10 11
6 0 10 -2 10 -4z m4229 -25 c-15 -5 -22 6 -14 19 6 9 10 9 16 -1 5 -8 4 -15
-2 -18z m131 9 c0 -11 -4 -20 -9 -20 -5 0 -11 9 -14 20 -3 13 0 20 9 20 8 0
14 -9 14 -20z m-66 -5 c4 -13 2 -14 -14 -5 -23 13 -26 20 -6 20 8 0 16 -7 20
-15z m-4274 -5 c0 -5 -2 -10 -4 -10 -3 0 -8 5 -11 10 -3 6 -1 10 4 10 6 0 11
-4 11 -10z m4293 -69 c15 -8 27 -18 27 -23 0 -12 -17 -10 -32 5 -7 8 -19 12
-26 9 -6 -2 -12 4 -12 13 0 9 3 15 8 13 4 -2 19 -10 35 -17z m63 -8 c-6 -6
-36 9 -36 18 0 5 9 4 20 -3 10 -7 18 -14 16 -15z m-4466 2 c0 -8 -4 -15 -10
-15 -5 0 -7 7 -4 15 4 8 8 15 10 15 2 0 4 -7 4 -15z m120 1 c0 -2 -7 -7 -16
-10 -8 -3 -12 -2 -9 4 6 10 25 14 25 6z m4385 -7 c11 -17 -1 -21 -15 -4 -8 9
-8 15 -2 15 6 0 14 -5 17 -11z m-4415 -63 c0 -3 -4 -8 -10 -11 -5 -3 -10 -1
-10 4 0 6 5 11 10 11 6 0 10 -2 10 -4z m-260 -21 c-7 -9 -15 -13 -19 -10 -3 3
1 10 9 15 21 14 24 12 10 -5z m-44 -7 c4 -7 4 -10 -1 -6 -4 4 -14 0 -22 -10
-13 -15 -13 -15 -3 6 12 25 16 27 26 10z m-376 -8 c0 -5 -2 -10 -4 -10 -3 0
-8 5 -11 10 -3 6 -1 10 4 10 6 0 11 -4 11 -10z m295 0 c-3 -5 -13 -10 -21 -10
-8 0 -12 5 -9 10 3 6 13 10 21 10 8 0 12 -4 9 -10z m-210 -30 c3 -5 1 -10 -4
-10 -6 0 -11 5 -11 10 0 6 2 10 4 10 3 0 8 -4 11 -10z m325 -30 c0 -5 -5 -10
-11 -10 -5 0 -7 5 -4 10 3 6 8 10 11 10 2 0 4 -4 4 -10z m-470 -10 c0 -5 -4
-10 -10 -10 -5 0 -10 5 -10 10 0 6 5 10 10 10 6 0 10 -4 10 -10z m815 0 c3 -6
-1 -7 -9 -4 -18 7 -21 14 -7 14 6 0 13 -4 16 -10z m-920 -10 c3 -5 1 -10 -4
-10 -6 0 -11 5 -11 10 0 6 2 10 4 10 3 0 8 -4 11 -10z m5005 -20 c0 -5 -2 -10
-4 -10 -3 0 -8 5 -11 10 -3 6 -1 10 4 10 6 0 11 -4 11 -10z m-4140 -34 c0 -3
-4 -8 -10 -11 -5 -3 -10 -1 -10 4 0 6 5 11 10 11 6 0 10 -2 10 -4z m4308 -8
c-3 -7 -14 -17 -26 -23 -12 -5 -22 -16 -22 -24 0 -8 -3 -12 -6 -8 -9 9 6 48
17 42 5 -4 12 1 15 9 7 19 28 22 22 4z m-4398 -19 c0 -11 -4 -18 -10 -14 -5 3
-7 12 -3 20 7 21 13 19 13 -6z m68 -27 c2 -7 -2 -10 -12 -6 -9 3 -16 11 -16
16 0 13 23 5 28 -10z m26 2 c3 -8 2 -12 -4 -9 -6 3 -10 10 -10 16 0 14 7 11
14 -7z m39 1 c-3 -9 -8 -14 -10 -11 -3 3 -2 9 2 15 9 16 15 13 8 -4z m4161 0
c-4 -8 -11 -15 -16 -15 -6 0 -5 6 2 15 7 8 14 15 16 15 2 0 1 -7 -2 -15z m36
5 c0 -5 -2 -10 -4 -10 -3 0 -8 5 -11 10 -3 6 -1 10 4 10 6 0 11 -4 11 -10z
m66 -6 c-3 -9 -6 -23 -7 -32 0 -12 -3 -10 -10 6 -10 25 -5 42 13 42 5 0 7 -7
4 -16z m-4331 -34 c3 -5 2 -10 -4 -10 -5 0 -13 5 -16 10 -3 6 -2 10 4 10 5 0
13 -4 16 -10z m42 -7 c0 -9 -4 -10 -14 -2 -7 6 -13 12 -13 14 0 1 6 2 13 2 8
0 14 -6 14 -14z m34 -6 c-10 -9 -11 -8 -5 6 3 10 9 15 12 12 3 -3 0 -11 -7
-18z m-71 -17 c0 -5 -5 -10 -11 -10 -5 0 -7 5 -4 10 3 6 8 10 11 10 2 0 4 -4
4 -10z m74 -30 c-6 -6 -10 -3 -10 10 0 13 4 16 10 10 7 -7 7 -13 0 -20z m4166
-35 c-7 -9 -15 -13 -17 -11 -6 6 20 36 26 30 2 -2 -2 -10 -9 -19z m50 -5 c0
-5 -2 -10 -4 -10 -3 0 -8 5 -11 10 -3 6 -1 10 4 10 6 0 11 -4 11 -10z m-4307
-33 c3 -8 -1 -14 -9 -14 -15 0 -18 9 -7 20 9 9 10 9 16 -6z m4317 3 c0 -5 -4
-10 -10 -10 -5 0 -10 5 -10 10 0 6 5 10 10 10 6 0 10 -4 10 -10z m-43 -45 c0
-8 -4 -12 -9 -9 -5 3 -6 10 -3 15 9 13 12 11 12 -6z m-4117 -39 c0 -3 -4 -8
-10 -11 -5 -3 -10 -1 -10 4 0 6 5 11 10 11 6 0 10 -2 10 -4z m-51 -27 c18 10
21 9 21 -5 0 -10 -3 -14 -6 -11 -4 3 -15 2 -25 -4 -11 -5 -19 -8 -19 -5 0 2
-3 13 -6 23 -4 13 -3 15 4 4 7 -10 14 -11 31 -2z m4151 -45 c0 -8 -4 -12 -10
-9 -5 3 -10 10 -10 16 0 5 5 9 10 9 6 0 10 -7 10 -16z m-4153 -51 c-11 -10
-26 8 -20 23 5 15 7 14 15 -1 6 -9 7 -19 5 -22z m37 -2 c3 -4 -1 -17 -10 -27
-14 -18 -15 -18 -5 3 8 16 8 23 -2 26 -9 4 -9 6 0 6 6 1 14 -3 17 -8z m4106
-1 c0 -5 -5 -10 -11 -10 -5 0 -7 5 -4 10 3 6 8 10 11 10 2 0 4 -4 4 -10z m-45
-40 c3 -5 1 -10 -4 -10 -6 0 -11 5 -11 10 0 6 2 10 4 10 3 0 8 -4 11 -10z
m-4020 -20 c3 -5 1 -10 -4 -10 -6 0 -11 5 -11 10 0 6 2 10 4 10 3 0 8 -4 11
-10z m-118 -22 c-3 -8 -6 -5 -6 6 -1 11 2 17 5 13 3 -3 4 -12 1 -19z m-17 -2
c0 -3 -4 -8 -10 -11 -5 -3 -10 -1 -10 4 0 6 5 11 10 11 6 0 10 -2 10 -4z m31
-52 l-8 -29 -5 27 c-3 15 -1 25 3 22 5 -3 9 0 9 7 0 7 2 10 5 8 2 -3 1 -18 -4
-35z m44 -44 c-3 -5 -11 -10 -16 -10 -6 0 -7 5 -4 10 3 6 11 10 16 10 6 0 7
-4 4 -10z m38 -25 c-3 -9 -8 -14 -10 -11 -3 3 -2 9 2 15 9 16 15 13 8 -4z
m-39 -3 c3 -5 -1 -9 -9 -9 -8 0 -12 4 -9 9 3 4 7 8 9 8 2 0 6 -4 9 -8z m86 4
c0 -3 -4 -8 -10 -11 -5 -3 -10 -1 -10 4 0 6 5 11 10 11 6 0 10 -2 10 -4z m-60
-66 c0 -5 -5 -10 -11 -10 -5 0 -7 5 -4 10 3 6 8 10 11 10 2 0 4 -4 4 -10z m40
-2 c0 -4 -4 -8 -9 -8 -6 0 -12 4 -15 8 -3 5 1 9 9 9 8 0 15 -4 15 -9z m118
-23 c-3 -3 -9 2 -12 12 -6 14 -5 15 5 6 7 -7 10 -15 7 -18z m-118 -26 c0 -11
-4 -17 -10 -14 -5 3 -10 13 -10 21 0 8 5 14 10 14 6 0 10 -9 10 -21z m0 -88
c0 -5 8 -11 18 -13 11 -2 13 -6 6 -10 -6 -4 -19 1 -29 12 -10 12 -13 20 -7 20
7 0 12 -4 12 -9z m3994 -17 c22 -9 10 -23 -14 -17 -11 3 -17 9 -14 14 6 11 8
11 28 3z m-164 -154 c0 -5 -7 -10 -16 -10 -8 0 -12 5 -9 10 3 6 10 10 16 10 5
0 9 -4 9 -10z m90 -50 c0 -5 -2 -10 -4 -10 -3 0 -8 5 -11 10 -3 6 -1 10 4 10
6 0 11 -4 11 -10z m-76 -44 c-3 -9 -10 -16 -15 -16 -5 0 -4 9 3 20 14 22 21
20 12 -4z m-21 -43 c-3 -7 -9 -13 -14 -13 -5 0 -9 6 -9 13 0 8 6 14 14 14 8 0
12 -6 9 -14z m-60 -148 c-3 -9 -8 -14 -10 -11 -3 3 -2 9 2 15 9 16 15 13 8 -4z
m-33 -34 c0 -6 -4 -13 -10 -16 -5 -3 -10 1 -10 9 0 9 5 16 10 16 6 0 10 -4 10
-9z m-115 -31 c-24 -26 -32 -18 -9 9 10 11 20 18 23 16 2 -3 -4 -14 -14 -25z
m-105 -20 c0 -5 -5 -10 -11 -10 -5 0 -7 5 -4 10 3 6 8 10 11 10 2 0 4 -4 4
-10z m160 -10 c0 -5 -4 -10 -10 -10 -5 0 -10 5 -10 10 0 6 5 10 10 10 6 0 10
-4 10 -10z m-80 -36 c0 -8 -4 -12 -10 -9 -5 3 -10 10 -10 16 0 5 5 9 10 9 6 0
10 -7 10 -16z m-81 -31 c-7 -10 -15 -20 -16 -22 -2 -2 -3 5 -3 17 0 14 6 22
16 22 14 0 15 -3 3 -17z m121 -3 c0 -5 -2 -10 -4 -10 -3 0 -8 5 -11 10 -3 6
-1 10 4 10 6 0 11 -4 11 -10z m-60 -20 c0 -5 -7 -7 -15 -4 -8 4 -15 8 -15 10
0 2 7 4 15 4 8 0 15 -4 15 -10z m-3050 -10 c0 -5 -4 -10 -9 -10 -6 0 -13 5
-16 10 -3 6 1 10 9 10 9 0 16 -4 16 -10z m2930 -11 c0 -6 -4 -7 -10 -4 -5 3
-10 11 -10 16 0 6 5 7 10 4 6 -3 10 -11 10 -16z m5 -29 c-3 -5 -12 -10 -18
-10 -7 0 -6 4 3 10 19 12 23 12 15 0z m-2765 -10 c0 -5 -2 -10 -4 -10 -3 0 -8
5 -11 10 -3 6 -1 10 4 10 6 0 11 -4 11 -10z m2661 -23 c-10 -9 -11 -8 -5 6 3
10 9 15 12 12 3 -3 0 -11 -7 -18z m157 -7 c-7 -11 -16 -20 -20 -20 -11 0 -10
9 5 25 18 21 29 18 15 -5z m-198 -14 c0 -3 -4 -8 -10 -11 -5 -3 -10 -1 -10 4
0 6 5 11 10 11 6 0 10 -2 10 -4z m82 -28 c-8 -8 -9 -4 -5 13 4 13 8 18 11 10
2 -7 -1 -18 -6 -23z m-115 -20 c-3 -7 -5 -2 -5 12 0 14 2 19 5 13 2 -7 2 -19
0 -25z m26 -3 c-3 -9 -8 -14 -10 -11 -3 3 -2 9 2 15 9 16 15 13 8 -4z m147 7
c0 -13 -12 -22 -22 -16 -10 6 -1 24 13 24 5 0 9 -4 9 -8z m-207 -27 c-3 -9 -8
-14 -10 -11 -3 3 -2 9 2 15 9 16 15 13 8 -4z m-23 -25 c0 -5 -4 -10 -10 -10
-5 0 -10 5 -10 10 0 6 5 10 10 10 6 0 10 -4 10 -10z m42 -45 c-2 -14 -8 -25
-13 -25 -10 0 -11 12 -3 34 10 25 22 19 16 -9z m82 11 c-21 -15 -30 -14 -19 3
3 6 14 11 23 11 13 0 13 -2 -4 -14z m-274 -4 c0 -5 -7 -9 -15 -9 -8 0 -12 4
-9 9 3 4 9 8 15 8 5 0 9 -4 9 -8z m230 -23 c0 -6 -4 -7 -10 -4 -5 3 -10 11
-10 16 0 6 5 7 10 4 6 -3 10 -11 10 -16z m-2530 -9 c0 -5 -5 -10 -11 -10 -5 0
-7 5 -4 10 3 6 8 10 11 10 2 0 4 -4 4 -10z m2370 -10 c0 -5 -2 -10 -4 -10 -3
0 -8 5 -11 10 -3 6 -1 10 4 10 6 0 11 -4 11 -10z m-160 -4 c0 -3 -4 -8 -10
-11 -5 -3 -10 -1 -10 4 0 6 5 11 10 11 6 0 10 -2 10 -4z m-50 -20 c0 -3 -4 -8
-10 -11 -5 -3 -10 -1 -10 4 0 6 5 11 10 11 6 0 10 -2 10 -4z m-50 -36 c-24
-15 -36 -11 -14 4 10 8 21 12 24 10 2 -3 -2 -9 -10 -14z m320 6 c0 -2 -8 -10
-17 -17 -16 -13 -17 -12 -4 4 13 16 21 21 21 13z m-136 -41 c-7 -17 -20 -20
-29 -6 -3 5 3 12 12 14 10 3 19 5 20 6 1 0 0 -6 -3 -14z m-2104 -36 c0 -5 -4
-9 -10 -9 -5 0 -10 7 -10 16 0 8 5 12 10 9 6 -3 10 -10 10 -16z m1776 -14 c1
-41 -3 -44 -15 -12 -5 13 -5 27 1 35 14 16 13 17 14 -23z m-135 -28 c-10 -9
-11 -8 -5 6 3 10 9 15 12 12 3 -3 0 -11 -7 -18z m57 -2 c-3 -3 -9 2 -12 12 -6
14 -5 15 5 6 7 -7 10 -15 7 -18z m132 11 c0 -3 -4 -8 -10 -11 -5 -3 -10 -1
-10 4 0 6 5 11 10 11 6 0 10 -2 10 -4z m-287 -21 c-3 -9 -8 -14 -10 -11 -3 3
-2 9 2 15 9 16 15 13 8 -4z m52 -3 c-3 -3 -11 0 -18 7 -9 10 -8 11 6 5 10 -3
15 -9 12 -12z m279 3 c-4 -8 -8 -15 -10 -15 -2 0 -4 7 -4 15 0 8 4 15 10 15 5
0 7 -7 4 -15z m-24 -15 c0 -5 -5 -10 -11 -10 -5 0 -7 5 -4 10 3 6 8 10 11 10
2 0 4 -4 4 -10z m-335 -19 c-3 -6 -11 -11 -17 -11 -6 0 -6 6 2 15 14 17 26 13
15 -4z m-90 -31 c3 -5 1 -10 -4 -10 -6 0 -11 5 -11 10 0 6 2 10 4 10 3 0 8 -4
11 -10z m251 -27 c-6 -15 -9 -15 -16 -3 -6 9 -5 17 3 22 16 10 21 2 13 -19z
m196 -5 c-7 -7 -12 -8 -12 -2 0 14 12 26 19 19 2 -3 -1 -11 -7 -17z m-912 2
c0 -5 -2 -10 -4 -10 -3 0 -8 5 -11 10 -3 6 -1 10 4 10 6 0 11 -4 11 -10z m660
-15 c0 -8 -4 -15 -10 -15 -5 0 -10 7 -10 15 0 8 5 15 10 15 6 0 10 -7 10 -15z
m-90 1 c0 -3 -4 -8 -10 -11 -5 -3 -10 -1 -10 4 0 6 5 11 10 11 6 0 10 -2 10
-4z m240 -20 c0 -11 -19 -15 -25 -6 -3 5 1 10 9 10 9 0 16 -2 16 -4z m-550
-16 c0 -5 -5 -10 -11 -10 -5 0 -7 5 -4 10 3 6 8 10 11 10 2 0 4 -4 4 -10z
m161 -7 c13 -16 12 -17 -3 -4 -10 7 -18 15 -18 17 0 8 8 3 21 -13z m53 -7 c-3
-9 -10 -13 -16 -10 -5 3 -4 12 3 20 15 18 22 13 13 -10z m-87 -8 c-3 -8 -6 -5
-6 6 -1 11 2 17 5 13 3 -3 4 -12 1 -19z m257 -2 c-10 -8 -21 -12 -24 -10 -5 6
21 24 34 24 6 0 1 -6 -10 -14z m-509 -6 c3 -5 1 -10 -4 -10 -6 0 -11 5 -11 10
0 6 2 10 4 10 3 0 8 -4 11 -10z m-370 -10 c3 -5 1 -10 -4 -10 -6 0 -11 5 -11
10 0 6 2 10 4 10 3 0 8 -4 11 -10z m605 -4 c0 -3 -4 -8 -10 -11 -5 -3 -10 -1
-10 4 0 6 5 11 10 11 6 0 10 -2 10 -4z m45 -37 c-4 -5 -12 -3 -21 5 -20 21
-17 28 6 16 11 -6 18 -15 15 -21z m-78 -14 c0 -8 -4 -15 -9 -15 -10 0 -11 14
-1 23 9 10 10 9 10 -8z"/>
<path d="M5116 7972 c-2 -1 -47 -3 -102 -5 l-99 -2 4 -105 c2 -58 3 -481 2
-940 -1 -459 1 -858 4 -885 l6 -50 47 4 c26 2 52 6 57 11 19 13 45 19 45 10 0
-6 -9 -10 -20 -10 -11 0 -20 -3 -20 -7 0 -5 27 -8 60 -8 43 0 64 5 70 15 8 13
10 12 10 -2 0 -11 8 -18 20 -18 19 0 19 12 21 573 0 314 1 586 0 602 0 17 0
65 0 108 0 50 -5 85 -13 95 -10 12 -10 14 -1 8 10 -6 12 57 10 304 l-2 311
-48 -3 c-27 -2 -50 -4 -51 -6z m-26 -298 c0 -8 -5 -12 -10 -9 -6 4 -8 11 -5
16 9 14 15 11 15 -7z m40 -188 c0 -3 -4 -8 -10 -11 -5 -3 -10 -1 -10 4 0 6 5
11 10 11 6 0 10 -2 10 -4z m-100 -26 c0 -5 -4 -10 -10 -10 -5 0 -10 5 -10 10
0 6 5 10 10 10 6 0 10 -4 10 -10z m35 -180 c3 -5 1 -10 -4 -10 -6 0 -11 5 -11
10 0 6 2 10 4 10 3 0 8 -4 11 -10z m-88 -102 c-3 -8 -6 -5 -6 6 -1 11 2 17 5
13 3 -3 4 -12 1 -19z m183 -159 c0 -11 -4 -17 -10 -14 -5 3 -10 13 -10 21 0 8
5 14 10 14 6 0 10 -9 10 -21z m-100 -11 c0 -6 -6 -5 -15 2 -8 7 -15 14 -15 16
0 2 7 1 15 -2 8 -4 15 -11 15 -16z m105 -78 c3 -5 2 -10 -4 -10 -5 0 -13 5
-16 10 -3 6 -2 10 4 10 5 0 13 -4 16 -10z m-84 -37 c13 -16 12 -17 -3 -4 -10
7 -18 15 -18 17 0 8 8 3 21 -13z m9 -193 c0 -5 -2 -10 -4 -10 -3 0 -8 5 -11
10 -3 6 -1 10 4 10 6 0 11 -4 11 -10z m-30 -150 c0 -5 -2 -10 -4 -10 -3 0 -8
5 -11 10 -3 6 -1 10 4 10 6 0 11 -4 11 -10z m-35 -200 c3 -5 1 -10 -4 -10 -6
0 -11 5 -11 10 0 6 2 10 4 10 3 0 8 -4 11 -10z m75 -11 c0 -5 -4 -9 -10 -9 -5
0 -10 7 -10 16 0 8 5 12 10 9 6 -3 10 -10 10 -16z"/>
<path d="M3870 7953 c-12 -3 -14 -20 -12 -96 6 -140 5 -712 -1 -800 -2 -42 -1
-80 4 -83 5 -3 5 -13 0 -22 -8 -17 -6 -185 3 -200 2 -4 1 -24 -3 -43 -4 -18
-4 -46 0 -61 4 -15 4 -29 1 -33 -4 -4 -5 -80 0 -180 0 -5 0 -37 -1 -70 0 -33
0 -73 0 -90 0 -16 -2 -79 -6 -139 -4 -83 -2 -112 7 -118 7 -4 8 -8 3 -8 -14 0
-18 -57 -5 -65 6 -3 13 0 15 8 4 9 20 13 53 11 32 -1 53 3 65 14 15 13 18 14
15 2 -2 -9 6 -15 20 -16 16 -1 22 4 23 20 0 20 0 20 9 -1 10 -24 30 -32 30
-12 0 8 5 8 15 -1 8 -7 15 -9 15 -5 0 5 9 0 19 -9 18 -16 19 -16 20 6 4 52 10
475 10 643 0 212 1 267 5 274 2 3 0 28 -4 54 -4 26 -3 50 2 53 4 3 6 22 4 42
-4 33 -7 119 -5 162 0 8 0 53 -1 99 -1 46 1 85 4 88 2 3 1 15 -4 28 -5 12 -5
26 -2 31 4 5 6 122 4 261 l-3 252 -92 0 c-51 0 -114 1 -142 4 -27 2 -57 2 -65
0z m184 -308 c-4 -8 -8 -15 -10 -15 -2 0 -4 7 -4 15 0 8 4 15 10 15 5 0 7 -7
4 -15z m44 -240 c-3 -3 -9 2 -12 12 -6 14 -5 15 5 6 7 -7 10 -15 7 -18z m-58
-51 c0 -8 -5 -12 -10 -9 -6 4 -8 11 -5 16 9 14 15 11 15 -7z m60 -190 c0 -8
-4 -12 -10 -9 -5 3 -10 10 -10 16 0 5 5 9 10 9 6 0 10 -7 10 -16z m-140 -24
c0 -5 -2 -10 -4 -10 -3 0 -8 5 -11 10 -3 6 -1 10 4 10 6 0 11 -4 11 -10z m20
-115 c-7 -9 -15 -13 -19 -10 -3 3 1 10 9 15 21 14 24 12 10 -5z m-24 -52 c-10
-10 -19 5 -10 18 6 11 8 11 12 0 2 -7 1 -15 -2 -18z m98 11 c10 -25 -1 -29
-14 -5 -6 12 -7 21 -1 21 5 0 12 -7 15 -16z m-96 -44 c7 -11 9 -20 4 -20 -10
0 -32 22 -32 32 0 15 15 8 28 -12z m87 -39 c-6 -5 -25 10 -25 20 0 5 6 4 14
-3 8 -7 12 -15 11 -17z m-142 -20 c-4 -15 -8 -19 -13 -10 -5 6 -3 18 3 24 16
17 17 14 10 -14z m72 19 c3 -5 1 -10 -4 -10 -6 0 -11 5 -11 10 0 6 2 10 4 10
3 0 8 -4 11 -10z m18 -57 c-3 -7 -6 -13 -8 -13 -2 0 -5 6 -8 13 -3 8 1 14 8
14 7 0 11 -6 8 -14z m-53 -3 c0 -5 -2 -10 -4 -10 -3 0 -8 5 -11 10 -3 6 -1 10
4 10 6 0 11 -4 11 -10z m-25 -50 c3 -5 1 -10 -4 -10 -6 0 -11 5 -11 10 0 6 2
10 4 10 3 0 8 -4 11 -10z m114 -24 c-2 -2 -15 -9 -29 -15 -24 -11 -24 -11 -6
3 16 13 49 24 35 12z m-101 -61 c-6 -14 -13 -24 -14 -22 -6 6 9 47 17 47 5 0
3 -11 -3 -25z m77 -73 c-3 -3 -11 0 -18 7 -9 10 -8 11 6 5 10 -3 15 -9 12 -12z
m36 -25 c-10 -9 -11 -8 -5 6 3 10 9 15 12 12 3 -3 0 -11 -7 -18z m-29 -49 c-8
-8 -9 -4 -5 13 4 13 8 18 11 10 2 -7 -1 -18 -6 -23z m100 0 c-7 -7 -12 -8 -12
-2 0 14 12 26 19 19 2 -3 -1 -11 -7 -17z m-115 -40 c-3 -8 -6 -5 -6 6 -1 11 2
17 5 13 3 -3 4 -12 1 -19z m47 -2 c-3 -9 -10 -16 -15 -16 -5 0 -4 9 3 20 14
22 21 20 12 -4z m-117 8 c-3 -3 -12 -4 -19 -1 -8 3 -5 6 6 6 11 1 17 -2 13 -5z
m108 -54 c3 -5 1 -10 -4 -10 -6 0 -11 5 -11 10 0 6 2 10 4 10 3 0 8 -4 11 -10z
m35 -4 c0 -3 -4 -8 -10 -11 -5 -3 -10 -1 -10 4 0 6 5 11 10 11 6 0 10 -2 10
-4z m-125 -44 c-8 -8 -25 10 -19 20 4 6 9 5 15 -3 4 -7 6 -15 4 -17z m114 -11
c-2 -6 -10 2 -17 17 -11 25 -11 25 4 10 9 -9 15 -21 13 -27z m-149 -37 c0 -8
-5 -12 -10 -9 -6 4 -8 11 -5 16 9 14 15 11 15 -7z m169 -41 c0 -11 -3 -13 -6
-5 -2 6 -10 9 -15 6 -7 -4 -8 -2 -4 4 11 18 26 14 25 -5z m-89 -8 c0 -8 -4
-15 -10 -15 -5 0 -7 7 -4 15 4 8 8 15 10 15 2 0 4 -7 4 -15z m10 -95 c0 -13
-1 -13 -10 0 -5 8 -10 22 -10 30 0 13 1 13 10 0 5 -8 10 -22 10 -30z m-50 20
c0 -5 -2 -10 -4 -10 -3 0 -8 5 -11 10 -3 6 -1 10 4 10 6 0 11 -4 11 -10z m67
-62 c-3 -8 -6 -5 -6 6 -1 11 2 17 5 13 3 -3 4 -12 1 -19z m98 -17 c-3 -6 -11
-11 -17 -11 -6 0 -6 6 2 15 14 17 26 13 15 -4z m-195 -51 c0 -5 -2 -10 -4 -10
-3 0 -8 5 -11 10 -3 6 -1 10 4 10 6 0 11 -4 11 -10z m80 -54 c0 -3 -4 -8 -10
-11 -5 -3 -10 -1 -10 4 0 6 5 11 10 11 6 0 10 -2 10 -4z m70 -30 c0 -2 -8 -10
-17 -17 -16 -13 -17 -12 -4 4 13 16 21 21 21 13z m-80 -20 c-6 -8 -19 -12 -27
-9 -14 6 -14 8 3 14 30 12 37 10 24 -5z m-70 -30 c0 -3 -4 -8 -10 -11 -5 -3
-10 -1 -10 4 0 6 5 11 10 11 6 0 10 -2 10 -4z"/>
<path d="M5344 7791 c3 -91 9 -167 12 -170 9 -10 34 -9 34 1 0 7 5 7 13 -1 18
-14 59 -6 75 16 11 16 12 16 12 0 0 -12 9 -17 28 -18 255 -11 380 -52 502
-166 70 -65 119 -146 137 -226 7 -34 16 -69 19 -77 7 -17 5 -126 -2 -168 -10
-53 -32 -118 -55 -157 -34 -58 -83 -125 -91 -125 -4 0 -29 -16 -55 -37 -27
-20 -82 -52 -123 -71 l-75 -35 -210 -1 c-192 -2 -210 -3 -209 -19 0 -9 1 -84
2 -166 l2 -149 55 2 c30 0 55 4 55 7 0 7 88 1 101 -7 5 -3 9 -2 9 3 0 4 19 7
42 6 91 -5 193 -1 204 7 6 6 14 7 17 3 4 -3 17 -2 30 4 12 6 51 23 87 39 130
58 224 134 353 282 15 18 32 44 37 57 5 14 15 25 22 25 24 1 108 215 108 277
0 16 3 33 7 37 12 12 11 130 -1 138 -8 5 -7 8 2 8 9 0 11 15 6 63 -3 34 -6 70
-6 80 1 9 -4 17 -9 17 -6 0 -7 5 -4 10 4 6 0 32 -8 58 -9 26 -18 58 -21 72
-14 62 -119 216 -205 300 -74 72 -105 94 -206 146 -165 84 -220 94 -539 98
l-159 2 7 -165z m466 119 c0 -5 -4 -10 -10 -10 -5 0 -10 5 -10 10 0 6 5 10 10
10 6 0 10 -4 10 -10z m-90 -80 c0 -5 -4 -10 -10 -10 -5 0 -10 5 -10 10 0 6 5
10 10 10 6 0 10 -4 10 -10z m257 -16 c-3 -3 -12 -4 -19 -1 -8 3 -5 6 6 6 11 1
17 -2 13 -5z m203 -88 c0 -2 -8 -10 -17 -17 -16 -13 -17 -12 -4 4 13 16 21 21
21 13z m-4 -35 c-3 -5 1 -12 10 -15 8 -3 12 -2 9 4 -3 6 -2 10 3 10 6 0 12 -6
15 -13 6 -15 -39 -22 -48 -7 -6 10 1 30 11 30 3 0 3 -4 0 -9z m-116 -121 c0
-5 -7 -10 -16 -10 -8 0 -12 5 -9 10 3 6 10 10 16 10 5 0 9 -4 9 -10z m277 -42
c-3 -8 -6 -5 -6 6 -1 11 2 17 5 13 3 -3 4 -12 1 -19z m-197 2 c0 -5 -5 -10
-11 -10 -5 0 -7 5 -4 10 3 6 8 10 11 10 2 0 4 -4 4 -10z m-20 -24 c0 -3 -4 -8
-10 -11 -5 -3 -10 -1 -10 4 0 6 5 11 10 11 6 0 10 -2 10 -4z m190 -160 c0 -3
-4 -8 -10 -11 -5 -3 -10 -1 -10 4 0 6 5 11 10 11 6 0 10 -2 10 -4z m-110 -56
c0 -5 -5 -10 -11 -10 -5 0 -7 5 -4 10 3 6 8 10 11 10 2 0 4 -4 4 -10z m200
-96 c0 -8 -19 -13 -24 -6 -3 5 1 9 9 9 8 0 15 -2 15 -3z m-60 -74 c0 -5 -5
-10 -11 -10 -5 0 -7 5 -4 10 3 6 8 10 11 10 2 0 4 -4 4 -10z m70 -34 c0 -2 -8
-10 -17 -17 -16 -13 -17 -12 -4 4 13 16 21 21 21 13z m-93 -28 c-3 -8 -6 -5
-6 6 -1 11 2 17 5 13 3 -3 4 -12 1 -19z m-90 -10 c-3 -8 -6 -5 -6 6 -1 11 2
17 5 13 3 -3 4 -12 1 -19z m183 -123 c-7 -9 -15 -13 -18 -10 -3 2 1 11 8 20 7
9 15 13 18 10 3 -2 -1 -11 -8 -20z m-130 6 c0 -5 -9 -11 -21 -14 -16 -4 -18
-3 -8 9 13 16 29 19 29 5z m21 -38 c-12 -20 -14 -14 -5 12 4 9 9 14 11 11 3
-2 0 -13 -6 -23z m159 -7 c0 -2 -7 -7 -16 -10 -8 -3 -12 -2 -9 4 6 10 25 14
25 6z m-199 -29 c-10 -9 -11 -8 -5 6 3 10 9 15 12 12 3 -3 0 -11 -7 -18z
m-115 -214 c-10 -10 -19 5 -10 18 6 11 8 11 12 0 2 -7 1 -15 -2 -18z m90 -40
c-10 -10 -19 5 -10 18 6 11 8 11 12 0 2 -7 1 -15 -2 -18z m-212 2 c4 -10 -1
-15 -15 -15 -17 0 -18 2 -7 15 16 18 15 18 22 0z m76 -25 c0 -5 -4 -10 -10
-10 -5 0 -10 5 -10 10 0 6 5 10 10 10 6 0 10 -4 10 -10z m-57 -30 c-5 -19 -39
-37 -50 -26 -4 3 -1 6 5 6 7 0 12 7 12 16 0 8 4 13 9 9 5 -3 12 -1 16 5 10 16
14 12 8 -10z m127 -14 c0 -3 -4 -8 -10 -11 -5 -3 -10 -1 -10 4 0 6 5 11 10 11
6 0 10 -2 10 -4z m-192 -51 c-3 -3 -9 2 -12 12 -6 14 -5 15 5 6 7 -7 10 -15 7
-18z m-122 -12 c-10 -10 -19 5 -10 18 6 11 8 11 12 0 2 -7 1 -15 -2 -18z m235
-10 c-12 -20 -14 -14 -5 12 4 9 9 14 11 11 3 -2 0 -13 -6 -23z m-536 7 c3 -5
1 -10 -4 -10 -6 0 -11 5 -11 10 0 6 2 10 4 10 3 0 8 -4 11 -10z m72 -12 c-3
-8 -6 -5 -6 6 -1 11 2 17 5 13 3 -3 4 -12 1 -19z m353 -48 c-6 -11 -13 -20
-16 -20 -2 0 0 9 6 20 6 11 13 20 16 20 2 0 0 -9 -6 -20z m-463 -52 c-3 -8 -6
-5 -6 6 -1 11 2 17 5 13 3 -3 4 -12 1 -19z"/>
<path d="M3316 6678 c10 -12 14 -18 7 -14 -7 4 -17 -3 -24 -16 -9 -19 -9 -21
2 -11 8 9 16 9 25 3 20 -18 25 16 5 39 -10 12 -22 21 -26 21 -5 0 0 -10 11
-22z"/>
<path d="M3280 6668 c0 -9 -6 -19 -12 -21 -10 -4 -10 -6 0 -6 14 -1 28 26 18
36 -3 4 -6 -1 -6 -9z"/>
<path d="M3848 5736 c-5 -153 2 -267 14 -260 16 10 236 11 287 2 25 -5 47 -4
50 1 3 5 27 5 53 1 26 -4 71 -5 100 -4 248 14 794 19 1141 11 70 -2 129 -1
132 1 9 9 65 10 65 0 0 -9 85 -6 95 4 4 3 19 3 34 -2 32 -9 81 -8 99 3 6 5 16
5 22 2 5 -3 18 -1 28 4 13 7 22 7 30 -1 8 -8 18 -9 36 -1 17 8 27 8 35 0 8 -8
11 -8 11 0 0 7 10 10 21 8 12 -3 27 -1 33 3 6 4 20 7 31 7 12 0 25 11 33 28 7
15 17 27 22 27 19 0 40 64 32 95 -5 17 -7 35 -5 42 7 20 -37 93 -68 112 -32
19 -139 28 -139 12 0 -6 -20 -8 -49 -4 -27 3 -63 1 -80 -5 -17 -6 -31 -7 -31
-3 0 4 -33 6 -72 4 -40 -2 -190 -5 -333 -6 -143 -1 -265 -6 -272 -10 -6 -4
-15 -3 -18 3 -8 13 -104 4 -123 -12 -10 -9 -12 -8 -10 2 2 12 -53 14 -322 16
-300 2 -401 2 -520 1 -25 -1 -88 4 -140 11 -62 7 -96 8 -98 2 -2 -6 -9 -7 -15
-3 -6 4 -32 8 -58 9 l-48 2 -3 -102z m1542 13 c0 -5 -4 -9 -8 -9 -5 0 -9 7 -9
15 0 8 4 12 9 9 4 -3 8 -9 8 -15z m-702 -14 c-3 -3 -9 2 -12 12 -6 14 -5 15 5
6 7 -7 10 -15 7 -18z m252 21 c0 -3 -4 -8 -10 -11 -5 -3 -10 -1 -10 4 0 6 5
11 10 11 6 0 10 -2 10 -4z m667 -28 c-3 -8 -6 -5 -6 6 -1 11 2 17 5 13 3 -3 4
-12 1 -19z m333 -8 c0 -5 -4 -10 -10 -10 -5 0 -10 5 -10 10 0 6 5 10 10 10 6
0 10 -4 10 -10z m-913 -25 c0 -8 -4 -12 -9 -9 -5 3 -6 10 -3 15 9 13 12 11 12
-6z m-282 -5 c-3 -5 -11 -10 -16 -10 -6 0 -7 5 -4 10 3 6 11 10 16 10 6 0 7
-4 4 -10z m625 -30 c0 -5 -5 -10 -11 -10 -5 0 -7 5 -4 10 3 6 8 10 11 10 2 0
4 -4 4 -10z m490 6 c0 -2 -7 -7 -16 -10 -8 -3 -12 -2 -9 4 6 10 25 14 25 6z
m320 -16 c0 -5 -5 -10 -11 -10 -5 0 -7 5 -4 10 3 6 8 10 11 10 2 0 4 -4 4 -10z
m-163 -26 c-9 -9 -28 6 -21 18 4 6 10 6 17 -1 6 -6 8 -13 4 -17z m-1067 -4 c0
-5 -5 -10 -11 -10 -5 0 -7 5 -4 10 3 6 8 10 11 10 2 0 4 -4 4 -10z m220 6 c0
-3 -4 -8 -10 -11 -5 -3 -10 -1 -10 4 0 6 5 11 10 11 6 0 10 -2 10 -4z m284
-17 c-3 -5 -10 -7 -15 -3 -5 3 -7 10 -3 15 3 5 10 7 15 3 5 -3 7 -10 3 -15z
m171 1 c3 -5 1 -10 -4 -10 -6 0 -11 5 -11 10 0 6 2 10 4 10 3 0 8 -4 11 -10z
m253 -4 c-7 -8 -15 -12 -17 -11 -5 6 10 25 20 25 5 0 4 -6 -3 -14z m-508 -16
c0 -5 -4 -10 -10 -10 -5 0 -10 5 -10 10 0 6 5 10 10 10 6 0 10 -4 10 -10z"/>
<path d="M5177 5354 c-3 -3 -62 -6 -130 -5 l-125 0 3 -175 c2 -97 6 -178 9
-181 5 -5 151 -14 214 -13 13 0 32 -5 42 -10 27 -14 29 -1 29 197 1 158 -1
173 -18 182 -10 6 -21 8 -24 5z m-203 -299 c-4 -8 -8 -15 -10 -15 -2 0 -4 7
-4 15 0 8 4 15 10 15 5 0 7 -7 4 -15z"/>
<path d="M7010 8775 c-102 -32 -172 -129 -172 -235 0 -65 41 -168 84 -207 53
-50 177 -65 245 -30 78 41 153 155 153 233 0 161 -162 287 -310 239z m128 -84
c43 -22 78 -78 88 -139 10 -61 -25 -128 -80 -153 -55 -25 -122 -24 -164 1 -33
21 -71 87 -72 125 0 38 21 95 47 126 49 58 116 73 181 40z"/>
<path d="M7011 8656 c-7 -9 -10 -52 -9 -122 l3 -109 78 -3 c71 -3 78 -1 75 15
-2 11 -20 23 -46 31 l-42 14 0 88 c0 71 -3 89 -16 94 -23 9 -30 8 -43 -8z"/>
<path d="M7025 5320 c-3 -5 -1 -10 4 -10 6 0 11 5 11 10 0 6 -2 10 -4 10 -3 0
-8 -4 -11 -10z"/>
<path d="M880 5160 c0 -5 5 -10 11 -10 5 0 7 5 4 10 -3 6 -8 10 -11 10 -2 0
-4 -4 -4 -10z"/>
<path d="M7407 4124 c-3 -4 0 -21 7 -38 17 -41 206 -344 251 -403 19 -25 35
-49 35 -53 0 -3 -10 -17 -21 -29 l-22 -23 23 -67 c13 -36 36 -89 51 -117 16
-28 29 -60 28 -70 0 -16 -2 -16 -9 3 -7 16 -14 21 -26 16 -13 -5 -15 -3 -10 8
5 9 3 8 -6 -2 -7 -9 -20 -14 -28 -12 -10 3 -8 -1 4 -11 12 -10 15 -16 7 -16
-11 0 -11 -3 -1 -15 11 -13 10 -14 -4 -9 -12 5 -15 2 -10 -10 10 -26 -4 -18
-21 12 -15 26 -15 26 -9 2 8 -31 24 -42 41 -28 9 7 13 7 13 0 0 -12 -24 -22
-51 -22 -10 0 -19 -4 -19 -10 0 -5 5 -10 10 -10 7 0 7 -6 0 -20 -9 -16 -8 -20
5 -20 10 0 13 5 9 13 -4 6 -4 9 1 5 4 -4 14 0 21 10 8 10 13 12 14 4 0 -7 -9
-20 -20 -29 -11 -10 -20 -24 -20 -33 0 -12 2 -12 9 -2 6 10 10 10 20 -1 9 -12
7 -16 -10 -20 -12 -3 -18 -10 -14 -16 3 -6 1 -11 -5 -11 -6 0 -8 -5 -4 -11 4
-8 9 -8 17 0 17 17 31 13 17 -4 -9 -10 -9 -15 -1 -15 6 0 10 -3 10 -7 -4 -24
3 -35 17 -29 8 3 12 2 9 -4 -3 -6 -13 -10 -21 -10 -9 0 -14 -6 -11 -12 2 -7
16 -13 30 -12 15 1 28 -4 29 -10 5 -41 1 -73 -12 -82 -11 -10 -9 -11 12 -9 33
4 48 -24 18 -32 -11 -3 -17 -9 -14 -15 3 -5 15 -6 27 -2 18 6 20 4 11 -7 -13
-17 -12 -28 4 -56 9 -17 9 -22 -1 -26 -7 -3 -4 -6 6 -6 14 -1 16 -5 8 -19 -6
-12 -6 -23 0 -33 8 -11 12 -11 16 -1 8 20 22 14 16 -8 -4 -16 -2 -19 13 -13
18 6 18 6 2 -14 -21 -23 -24 -38 -5 -27 9 6 9 5 0 -7 -9 -11 -8 -18 3 -33 9
-13 14 -15 14 -6 0 19 10 7 15 -20 2 -12 10 -29 17 -38 12 -13 10 -14 -9 -3
-13 6 -23 8 -23 2 0 -5 7 -12 16 -15 9 -3 14 -13 10 -21 -3 -8 -1 -17 5 -20 5
-4 7 -10 4 -15 -3 -4 5 -6 17 -2 16 4 19 2 13 -9 -15 -24 -13 -48 3 -41 9 3
13 1 9 -5 -4 -6 0 -16 8 -23 7 -6 13 -17 11 -23 -1 -7 -1 -9 1 -4 10 16 24 6
18 -13 -4 -14 -2 -20 7 -18 7 2 12 -5 12 -15 -2 -17 0 -17 15 -3 10 9 22 16
27 16 5 0 2 -5 -6 -10 -13 -8 -13 -10 2 -10 9 0 18 6 21 13 2 6 2 1 0 -11 -2
-15 0 -21 7 -17 5 3 10 1 10 -4 0 -15 -23 -14 -40 2 -8 6 -2 -2 14 -20 17 -19
26 -38 23 -47 -4 -11 3 -21 23 -31 17 -9 30 -21 30 -27 0 -6 -9 -3 -20 7 -11
10 -20 14 -20 9 0 -5 9 -15 20 -22 18 -11 21 -10 28 8 l8 21 19 -21 c16 -18
17 -23 5 -31 -12 -8 -10 -10 8 -6 12 3 22 1 22 -4 0 -5 -4 -9 -8 -9 -15 0 -9
-24 10 -42 21 -21 26 -1 6 21 -11 11 -10 13 2 9 8 -3 16 -14 18 -25 2 -12 12
-29 23 -39 10 -9 19 -23 19 -31 0 -7 9 -22 20 -33 11 -11 16 -20 11 -20 -6 0
-16 9 -24 21 -9 11 -18 16 -21 11 -3 -6 1 -17 9 -25 8 -9 11 -17 6 -19 -13 -5
-24 -48 -12 -48 6 0 11 9 11 20 0 11 3 20 8 21 4 0 15 2 24 4 25 5 46 -23 27
-37 -11 -8 -11 -9 4 -4 9 3 17 1 17 -4 0 -6 14 -8 33 -5 22 4 28 2 17 -4 -8
-5 -19 -7 -25 -3 -6 3 -6 0 1 -9 6 -8 10 -24 9 -36 -1 -18 1 -20 12 -11 8 6
12 20 10 30 -3 10 -1 15 5 12 6 -4 7 -20 4 -37 -5 -25 -4 -29 6 -19 19 19 30
14 17 -9 -10 -20 -9 -21 9 -17 25 7 57 -24 48 -47 -3 -9 -2 -13 4 -10 6 3 10
2 10 -4 0 -5 -5 -13 -10 -16 -15 -9 -2 -25 15 -19 8 4 12 11 8 18 -4 6 1 5 10
-3 12 -10 14 -17 7 -26 -8 -9 -6 -12 7 -12 35 0 44 -3 38 -13 -4 -6 -10 -8
-15 -5 -16 10 -20 -12 -5 -31 13 -19 13 -18 12 1 -1 12 4 20 13 20 9 0 15 -9
15 -25 0 -18 5 -24 18 -22 9 2 17 -2 17 -8 0 -6 6 -8 13 -4 6 4 1 -6 -13 -22
-15 -17 -17 -23 -6 -14 15 12 20 12 23 2 3 -6 9 -10 14 -7 5 4 6 -1 3 -9 -4
-10 3 -20 20 -27 14 -7 26 -19 26 -28 0 -9 8 -27 17 -40 9 -14 12 -21 6 -18
-6 4 -10 -3 -10 -18 0 -23 12 -31 40 -26 12 2 8 -37 -5 -42 -7 -3 -3 -6 9 -6
12 -1 24 -7 26 -13 4 -10 6 -10 6 0 1 6 8 12 17 12 8 0 12 -5 9 -10 -4 -6 -1
-9 6 -8 18 4 18 -24 -1 -40 -8 -8 -9 -11 -2 -7 6 3 12 1 12 -6 0 -7 7 -4 15 7
11 14 15 15 14 4 -3 -28 1 -40 12 -40 8 0 7 5 -1 15 -11 13 -10 14 4 9 9 -3
16 -12 16 -19 0 -20 23 -24 38 -6 8 9 11 10 7 3 -10 -19 -16 -79 -6 -64 4 7
15 10 24 6 20 -7 24 -55 5 -50 -7 1 -10 1 -5 -1 4 -3 4 -9 1 -15 -4 -5 5 -2
20 7 29 20 34 15 10 -10 -16 -15 -16 -16 2 -13 11 2 18 -2 16 -10 -1 -6 1 -11
5 -10 5 1 20 -6 35 -16 23 -15 26 -21 17 -38 -10 -19 -11 -19 -24 -1 -13 17
-14 17 -8 -5 6 -25 16 -28 36 -8 11 12 15 11 26 -6 11 -18 11 -20 -2 -15 -9 3
-18 0 -21 -8 -3 -10 2 -11 23 -5 26 7 27 6 23 -24 -3 -17 -1 -27 4 -23 9 8 10
12 13 39 0 6 7 3 15 -8 10 -13 11 -21 3 -26 -7 -4 -7 -11 2 -22 8 -9 10 -16 7
-16 -4 0 -1 -6 6 -14 7 -8 16 -10 19 -5 3 6 11 -9 18 -32 7 -23 19 -48 26 -56
15 -14 26 -17 22 -5 -1 4 2 7 8 7 5 0 10 -6 11 -12 1 -7 -4 -13 -12 -13 -12 0
-12 -4 -2 -20 8 -12 19 -18 30 -14 10 3 18 0 18 -7 0 -9 3 -9 14 0 11 9 16 9
22 0 4 -7 3 -9 -3 -6 -6 4 -16 0 -23 -8 -10 -12 -7 -17 14 -26 15 -7 26 -21
27 -33 0 -12 3 -15 6 -8 2 6 9 12 14 12 6 0 8 -3 6 -7 -3 -5 1 -14 9 -21 8 -7
14 -8 14 -2 0 5 5 10 10 10 7 0 7 -7 -1 -21 -8 -16 -8 -20 1 -14 7 4 10 1 8
-11 -2 -11 3 -19 12 -19 8 -1 14 -7 12 -14 -2 -8 4 -10 18 -6 11 4 20 2 20 -4
0 -6 -4 -11 -8 -11 -5 0 -8 -10 -7 -23 1 -12 6 -20 11 -17 5 3 8 9 6 13 -1 5
2 6 8 2 5 -3 10 -15 10 -25 0 -10 8 -24 18 -29 9 -6 13 -11 8 -11 -5 0 -1 -9
9 -20 10 -11 22 -17 26 -14 5 3 9 0 9 -7 0 -8 4 -9 13 0 10 8 14 7 14 -4 0 -7
-5 -13 -10 -12 -5 1 -12 -4 -14 -12 -4 -9 0 -11 15 -7 24 8 41 -12 21 -25 -11
-7 -10 -9 4 -9 9 0 17 -5 17 -11 0 -8 6 -7 18 2 9 7 14 9 10 5 -4 -5 -2 -16 5
-24 10 -13 9 -15 -8 -10 -15 4 -21 0 -21 -13 0 -13 4 -15 17 -9 23 13 54 -21
37 -38 -9 -9 -7 -12 10 -12 12 0 22 5 22 12 0 6 3 8 6 5 4 -4 1 -13 -6 -22
-10 -12 -10 -15 4 -15 9 0 16 -5 16 -11 0 -8 4 -8 13 0 10 8 19 7 33 -4 18
-13 18 -14 -5 -8 -20 5 -23 3 -18 -10 4 -12 2 -14 -10 -10 -10 4 -14 2 -10 -5
4 -6 21 -14 38 -17 24 -5 30 -11 26 -26 -3 -10 -2 -18 2 -17 19 2 22 -4 10
-20 -12 -15 -12 -16 2 -5 9 7 20 9 24 5 5 -4 6 -2 3 3 -3 6 0 16 8 23 16 14
18 9 15 -41 -1 -28 22 -39 33 -14 4 6 4 2 2 -10 -4 -21 -2 -21 160 -23 l164
-1 0 323 0 323 -39 42 c-21 23 -36 44 -33 47 3 3 -3 6 -13 6 -10 0 -15 3 -11
7 4 5 12 8 17 8 11 0 12 5 4 27 -4 10 -12 15 -18 11 -6 -4 -8 0 -4 10 4 11 2
14 -9 10 -7 -3 -14 -10 -14 -15 0 -6 -7 -5 -15 2 -9 7 -13 15 -11 18 3 2 -15
24 -40 48 -35 35 -41 46 -29 51 11 3 28 -7 50 -31 18 -20 35 -32 37 -25 2 6
21 -14 43 -45 22 -30 46 -55 53 -56 6 0 12 -4 12 -10 0 -5 5 -10 10 -10 22 0
8 47 -26 83 -19 20 -32 37 -29 37 4 0 -14 21 -39 48 -64 68 -86 93 -192 224
-52 64 -109 132 -127 150 -18 19 -39 43 -47 53 -24 31 -83 110 -105 141 -29
41 -106 131 -170 199 -31 33 -70 80 -88 105 -17 24 -38 53 -47 63 -37 46 -46
56 -60 77 -8 13 -25 35 -37 50 -12 15 -20 30 -16 34 3 3 0 6 -8 6 -8 0 -25 16
-38 35 -13 19 -27 35 -32 35 -5 0 -9 6 -9 14 0 8 -10 22 -21 30 -13 9 -19 21
-16 30 4 10 1 16 -8 16 -8 0 -15 4 -15 8 0 5 -8 17 -17 28 -10 11 -43 49 -73
84 -30 36 -84 94 -119 130 -35 36 -79 84 -97 107 -18 24 -34 37 -36 31 -2 -6
-12 5 -22 25 -9 20 -19 37 -22 37 -3 0 -2 -6 1 -12 4 -7 -14 10 -39 37 -25 28
-45 58 -46 68 0 10 4 16 9 12 5 -3 12 -1 16 5 10 15 25 12 32 -7 4 -10 14 -23
22 -30 9 -6 16 -15 16 -20 0 -4 9 -18 20 -31 11 -12 20 -28 20 -34 0 -6 10
-12 22 -13 13 -1 19 3 16 11 -3 8 -10 12 -16 11 -7 -1 -13 5 -13 13 -1 8 -2
21 -3 28 0 6 -8 12 -17 12 -8 0 -13 4 -10 9 3 5 -17 33 -46 63 -45 46 -118
147 -118 163 0 3 7 5 16 5 8 0 13 4 9 9 -3 5 -1 12 3 15 13 7 38 -24 113 -136
35 -53 66 -95 68 -93 2 3 -33 59 -78 126 -77 114 -94 150 -55 118 16 -13 17
-12 12 8 -3 12 0 30 6 39 12 15 15 14 38 -17 13 -19 46 -63 72 -99 79 -107
151 -231 148 -255 -2 -12 5 -28 14 -36 16 -13 16 -12 5 9 -7 13 -11 27 -9 32
5 15 294 -300 377 -413 86 -116 111 -144 111 -128 0 5 -4 12 -9 15 -5 3 -48
60 -96 127 -55 75 -137 171 -219 252 -102 102 -152 161 -219 262 -47 72 -109
161 -136 200 -45 63 -49 72 -37 90 20 30 31 25 68 -28 18 -26 73 -101 121
-167 48 -65 94 -135 102 -154 17 -41 26 -47 17 -13 -7 28 -60 112 -132 207
-62 83 -130 185 -130 195 0 8 30 39 34 34 37 -54 118 -159 122 -159 2 0 -21
35 -51 78 -31 42 -71 100 -89 127 -18 28 -38 49 -44 48 -7 -2 -11 1 -9 6 2 9
-118 101 -245 188 -42 28 -127 91 -188 140 -258 205 -325 254 -342 249 -10 -2
-18 0 -18 5 0 15 -20 10 -57 -16 l-37 -24 -110 107 c-190 185 -287 272 -306
272 -4 0 -9 -3 -13 -6z m330 -301 c18 -18 27 -33 22 -33 -6 0 -7 -5 -3 -12 4
-7 3 -8 -5 -4 -6 4 -9 12 -6 17 4 5 2 9 -3 9 -5 0 -40 35 -78 78 l-69 77 55
-49 c30 -27 69 -64 87 -83z m889 -755 c5 -18 -2 -30 -37 -60 -48 -42 -59 -46
-59 -23 0 9 -7 18 -15 22 -14 5 -14 7 0 23 13 14 14 23 6 38 -8 14 -7 24 4 38
13 18 14 17 8 -6 -6 -22 -5 -23 10 -12 9 8 22 10 29 6 10 -5 11 -4 1 7 -24 24
-13 31 16 9 17 -11 33 -30 37 -42z m-109 -14 c-3 -3 -12 -4 -19 -1 -8 3 -5 6
6 6 11 1 17 -2 13 -5z m69 -203 c8 -21 8 -32 -2 -46 -15 -21 -8 -41 9 -27 12
9 51 13 42 4 -3 -3 3 -11 13 -18 13 -10 14 -15 5 -25 -10 -10 -14 -7 -22 14
-14 35 -22 34 -15 -2 9 -44 -19 -47 -40 -4 -9 19 -14 38 -11 43 3 5 -2 21 -11
35 -17 26 -8 34 16 13 7 -7 6 -2 -3 12 -20 29 -22 41 -4 34 7 -2 18 -17 23
-33z m-759 -123 c-3 -8 -6 -5 -6 6 -1 11 2 17 5 13 3 -3 4 -12 1 -19z m729 -4
c-4 -12 -2 -15 9 -10 9 3 15 0 15 -9 0 -8 -6 -15 -14 -15 -16 0 -29 27 -20 41
9 15 17 10 10 -7z m-86 -23 c0 -5 -7 -12 -16 -15 -14 -5 -15 -4 -4 9 14 17 20
19 20 6z m32 -53 c6 -14 5 -16 -7 -12 -8 3 -12 10 -9 15 3 5 -2 9 -12 9 -14 0
-14 2 -3 16 11 13 14 13 17 3 3 -8 9 -22 14 -31z m88 21 c0 -6 6 -9 14 -6 11
5 50 -28 51 -43 0 -3 12 -19 28 -35 15 -16 27 -33 27 -37 0 -5 6 -8 13 -8 8 0
20 -12 28 -27 8 -16 20 -34 27 -42 12 -12 15 -12 23 0 7 12 9 11 9 -2 0 -9 11
-22 25 -29 13 -7 22 -17 19 -22 -3 -5 -12 -1 -20 9 -7 10 -14 13 -14 8 0 -17
21 -34 36 -28 8 3 14 -1 14 -11 0 -9 3 -16 8 -16 23 -1 32 -18 23 -43 -8 -21
-7 -25 4 -20 8 3 15 10 15 15 0 6 22 -11 50 -38 47 -47 62 -74 40 -74 -6 0 -9
6 -8 13 2 6 -3 11 -9 9 -7 -1 -13 3 -13 9 0 6 -7 8 -16 5 -8 -3 -13 -2 -10 2
2 4 1 14 -5 22 -7 12 -9 11 -9 -5 0 -11 25 -47 55 -80 30 -33 55 -64 54 -70 0
-5 -3 -4 -6 3 -2 6 -11 12 -19 12 -8 0 -14 3 -14 8 0 4 -23 31 -50 61 -51 56
-59 71 -37 71 6 1 -4 9 -23 20 -19 11 -31 19 -27 20 4 0 3 9 -3 19 -8 16 -6
20 8 24 14 4 13 5 -3 6 -12 0 -26 -4 -32 -10 -8 -8 -13 -5 -18 10 -3 12 -11
21 -16 21 -6 0 -7 4 -4 10 3 6 -1 7 -9 4 -9 -3 -16 -1 -16 6 0 6 -6 17 -12 25
-7 7 -22 25 -33 39 -11 15 -25 32 -31 39 -6 7 -16 23 -23 35 -7 12 -16 20 -22
17 -5 -4 -10 1 -10 9 -2 25 -4 29 -20 60 -10 18 -19 25 -23 17 -4 -6 -2 -11 3
-11 6 0 11 -4 11 -10 0 -19 -16 -10 -33 20 -10 17 -13 30 -8 30 6 0 11 -5 11
-11z m-17 -92 c-4 -7 -17 3 -43 38 -11 15 -7 14 16 -5 17 -14 29 -28 27 -33z
m22 -17 c3 -5 1 -10 -4 -10 -6 0 -11 5 -11 10 0 6 2 10 4 10 3 0 8 -4 11 -10z
m-671 -8 c3 -5 -1 -9 -9 -9 -8 0 -12 4 -9 9 3 4 7 8 9 8 2 0 6 -4 9 -8z m687
-16 c-13 -16 2 -32 19 -21 6 3 10 2 10 -4 0 -15 -24 -19 -37 -5 -16 16 -16 31
0 37 19 8 20 8 8 -7z m-701 -41 c0 -8 -4 -15 -10 -15 -5 0 -7 7 -4 15 4 8 8
15 10 15 2 0 4 -7 4 -15z m759 -37 c9 3 11 0 6 -7 -4 -7 1 -18 11 -26 12 -9
14 -14 6 -15 -16 0 -72 62 -65 74 3 5 11 0 17 -11 6 -11 17 -18 25 -15z m-699
-76 c0 -12 -3 -12 -15 -2 -8 7 -15 13 -15 15 0 1 7 2 15 2 8 0 15 -7 15 -15z
m835 -62 c3 -5 1 -10 -4 -10 -6 0 -11 5 -11 10 0 6 2 10 4 10 3 0 8 -4 11 -10z
m21 -34 c7 -8 19 -16 25 -18 9 -3 9 -9 2 -22 -9 -17 -12 -16 -32 12 -29 41
-27 59 5 28z m-716 -52 c0 -2 -9 0 -20 6 -11 6 -20 13 -20 16 0 2 9 0 20 -6
11 -6 20 -13 20 -16z m787 -18 c15 -17 18 -27 10 -35 -17 -17 -27 -13 -27 9 0
11 -7 20 -15 20 -9 0 -12 6 -9 15 8 21 17 19 41 -9z m-792 -6 c3 -5 1 -10 -4
-10 -6 0 -11 5 -11 10 0 6 2 10 4 10 3 0 8 -4 11 -10z m945 -4 c0 -3 -4 -8
-10 -11 -5 -3 -10 -1 -10 4 0 6 5 11 10 11 6 0 10 -2 10 -4z m44 -53 c9 -23
-11 -14 -28 12 -17 25 -16 25 3 13 11 -7 23 -18 25 -25z m-144 -4 c0 -5 -7 -9
-15 -9 -8 0 -15 5 -15 11 0 5 -5 7 -12 3 -6 -4 -8 -3 -5 4 8 12 47 4 47 -9z
m26 -56 c-11 -11 -19 6 -11 24 8 17 8 17 12 0 3 -10 2 -21 -1 -24z m124 7 c-9
-17 -14 -19 -26 -10 -14 13 -9 34 6 25 5 -3 12 0 15 6 13 19 17 1 5 -21z m49
-24 c8 -10 9 -16 1 -21 -18 -11 -11 -25 13 -22 16 1 22 -3 21 -15 -1 -10 3
-18 8 -18 6 0 8 -7 4 -15 -3 -9 0 -15 10 -15 11 0 14 -9 12 -32 -3 -31 -28
-54 -28 -26 0 22 -39 98 -51 98 -6 0 -8 4 -4 9 3 5 1 12 -5 16 -5 3 -10 16
-10 28 0 18 -2 19 -10 7 -5 -8 -10 -10 -10 -4 0 26 31 32 49 10z m-103 -19
c15 -9 25 -47 13 -47 -5 0 -11 11 -15 24 -4 17 -11 23 -25 21 -11 -2 -17 0
-14 5 6 9 24 8 41 -3z m49 -75 c-3 -3 -11 0 -18 7 -9 10 -8 11 6 5 10 -3 15
-9 12 -12z m-1 -37 c-4 -8 -10 -15 -15 -15 -5 0 -9 7 -9 15 0 8 7 15 15 15 9
0 12 -6 9 -15z m57 -49 c-10 -11 -8 -16 9 -21 13 -4 19 -12 16 -20 -3 -8 3
-16 12 -18 16 -4 15 -5 -1 -12 -21 -9 -28 -4 -30 24 -1 13 -6 20 -14 17 -8 -3
-13 2 -13 13 0 16 10 26 29 30 2 1 -2 -5 -8 -13z m117 -39 c-13 -26 -17 -18
-10 23 4 29 6 31 12 15 4 -11 3 -28 -2 -38z m-34 26 c4 -9 2 -21 -4 -27 -7 -7
-10 -7 -10 1 0 6 -3 18 -6 27 -3 9 -2 16 4 16 5 0 13 -8 16 -17z m106 -55 c0
-8 -20 -22 -24 -17 -2 2 -7 14 -11 27 -6 22 -5 22 14 10 12 -7 21 -16 21 -20z
m-30 -39 c0 -6 -4 -7 -10 -4 -5 3 -10 11 -10 16 0 6 5 7 10 4 6 -3 10 -11 10
-16z m69 -8 c12 -17 19 -37 15 -48 -4 -12 -3 -14 3 -6 7 10 20 2 49 -29 21
-22 33 -38 27 -34 -9 5 -11 2 -7 -8 3 -9 10 -13 16 -10 5 3 20 -6 34 -21 14
-15 19 -25 11 -22 -8 3 -20 0 -27 -6 -10 -9 -11 -9 -6 1 5 8 0 12 -13 12 -12
0 -21 -6 -22 -12 0 -7 -5 3 -12 22 -8 24 -22 39 -45 50 -24 10 -32 19 -29 32
3 11 0 18 -9 18 -8 0 -14 5 -14 10 0 6 -6 10 -14 10 -19 0 -25 20 -15 48 11
30 34 28 58 -7z m-79 -61 c0 -5 -5 -10 -11 -10 -5 0 -7 5 -4 10 3 6 8 10 11
10 2 0 4 -4 4 -10z m37 -55 c0 -8 -4 -15 -9 -15 -10 0 -11 14 -1 23 9 10 10 9
10 -8z m88 -15 c3 -5 1 -10 -4 -10 -6 0 -11 5 -11 10 0 6 2 10 4 10 3 0 8 -4
11 -10z m-48 -6 c-3 -4 -2 -15 4 -25 7 -15 6 -17 -6 -13 -21 8 -18 44 3 44 3
0 2 -3 -1 -6z m-27 -38 c0 -3 -4 -8 -10 -11 -5 -3 -10 -1 -10 4 0 6 5 11 10
11 6 0 10 -2 10 -4z m210 -30 c0 -8 6 -16 13 -19 8 -3 7 -10 -7 -26 -11 -11
-22 -19 -24 -16 -3 3 3 12 14 20 18 13 18 14 1 15 -10 0 -20 -7 -23 -15 -4 -8
-10 -15 -16 -15 -5 0 -6 5 -3 10 3 6 -4 15 -17 20 -20 9 -20 10 -3 9 33 -2 38
0 27 14 -8 10 -5 13 14 15 15 1 24 -3 24 -12z m-163 -32 c-3 -3 -12 -4 -19 -1
-8 3 -5 6 6 6 11 1 17 -2 13 -5z m223 -44 c0 -5 14 -25 30 -43 17 -19 30 -40
30 -46 0 -6 4 -11 8 -11 5 0 18 -17 30 -37 12 -21 35 -52 51 -70 17 -17 32
-37 33 -44 4 -18 32 -47 41 -42 4 2 10 -4 14 -14 4 -10 18 -26 31 -37 13 -10
21 -24 18 -32 -3 -8 0 -11 9 -8 8 3 19 -4 26 -18 12 -23 21 -34 121 -158 42
-52 46 -60 20 -37 -19 15 -38 27 -43 27 -6 0 -7 4 -4 10 3 5 -1 10 -9 10 -8 0
-20 8 -25 18 -9 15 -12 15 -20 2 -8 -12 -10 -10 -8 7 0 12 6 19 12 17 5 -3 2
1 -7 9 -10 8 -15 17 -12 20 4 3 -5 12 -20 18 -14 7 -26 19 -26 26 0 8 -4 12
-9 8 -5 -3 -12 4 -16 15 -3 11 -14 20 -23 20 -15 0 -15 2 -2 10 13 9 13 10 0
10 -9 0 -21 -5 -27 -11 -7 -7 -9 -3 -5 17 3 18 1 25 -6 20 -6 -4 -18 6 -26 22
-8 16 -22 32 -31 35 -8 4 -15 14 -15 22 0 9 -4 14 -9 10 -5 -3 -12 -1 -15 4
-4 5 2 12 11 14 13 3 12 5 -5 6 -13 0 -20 5 -17 11 4 6 3 10 -2 9 -22 -4 -33
3 -31 19 3 36 -3 52 -18 52 -8 0 -13 4 -9 9 3 5 0 13 -6 17 -7 4 -9 3 -5 -4
12 -19 -15 -25 -29 -6 -21 27 -18 36 8 29 17 -5 19 -4 7 4 -8 6 -11 11 -5 11
5 0 -1 7 -13 16 -13 9 -31 13 -42 9 -16 -5 -19 -3 -13 11 4 11 3 15 -5 10 -6
-3 -13 -2 -17 4 -3 5 -1 10 4 10 6 0 11 5 11 10 0 22 24 38 43 29 9 -6 17 -14
17 -19z m-145 -50 c3 -5 1 -10 -4 -10 -6 0 -11 5 -11 10 0 6 2 10 4 10 3 0 8
-4 11 -10z m-704 -17 c12 -16 12 -17 -1 -7 -8 6 -22 14 -30 17 -13 5 -12 6 1
6 9 1 23 -7 30 -16z m19 -52 c0 -4 -11 -6 -25 -3 -14 2 -25 6 -25 8 0 2 11 4
25 4 14 0 25 -4 25 -9z m52 -49 c11 -13 11 -14 -2 -7 -8 6 -23 10 -32 11 -28
2 -30 3 -24 13 8 12 43 2 58 -17z m828 13 c11 -13 10 -14 -4 -9 -9 3 -16 10
-16 15 0 13 6 11 20 -6z m-53 -47 c-3 -8 -6 -5 -6 6 -1 11 2 17 5 13 3 -3 4
-12 1 -19z m33 -62 c0 -3 -4 -8 -10 -11 -5 -3 -10 -1 -10 4 0 6 5 11 10 11 6
0 10 -2 10 -4z m45 -56 c3 -5 2 -10 -4 -10 -5 0 -13 5 -16 10 -3 6 -2 10 4 10
5 0 13 -4 16 -10z m54 -51 c11 -19 11 -21 -4 -15 -9 3 -19 6 -21 6 -2 0 -4 7
-4 15 0 21 13 19 29 -6z m-669 -69 c0 -5 -2 -10 -4 -10 -3 0 -8 5 -11 10 -3 6
-1 10 4 10 6 0 11 -4 11 -10z m940 -125 c0 -12 -19 -12 -23 0 -4 9 -1 12 9 8
7 -3 14 -7 14 -8z m-785 -105 c1 -11 -2 -20 -7 -20 -4 0 -7 11 -6 25 3 28 11
24 13 -5z m79 -92 c-3 -4 -13 -8 -22 -7 -11 0 -12 3 -4 6 6 2 12 12 12 21 0
14 2 15 9 2 6 -8 7 -18 5 -22z m776 -38 c0 -5 -2 -10 -4 -10 -3 0 -8 5 -11 10
-3 6 -1 10 4 10 6 0 11 -4 11 -10z m50 -39 c0 -6 -4 -13 -10 -16 -5 -3 -10 1
-10 9 0 9 5 16 10 16 6 0 10 -4 10 -9z m-560 -195 c0 -2 -8 -10 -17 -17 -16
-13 -17 -12 -4 4 13 16 21 21 21 13z m-15 -54 c-3 -3 -11 0 -18 7 -9 10 -8 11
6 5 10 -3 15 -9 12 -12z m201 -197 c-3 -20 -16 -31 -16 -13 0 13 8 28 16 28 1
0 1 -7 0 -15z m65 -68 c-10 -9 -11 -8 -5 6 3 10 9 15 12 12 3 -3 0 -11 -7 -18z"/>
<path d="M8920 2310 c0 -5 5 -10 11 -10 5 0 7 5 4 10 -3 6 -8 10 -11 10 -2 0
-4 -4 -4 -10z"/>
<path d="M9350 1781 c0 -6 4 -13 10 -16 6 -3 7 1 4 9 -7 18 -14 21 -14 7z"/>
<path d="M9828 1173 c7 -3 16 -2 19 1 4 3 -2 6 -13 5 -11 0 -14 -3 -6 -6z"/>
<path d="M1870 3914 c0 -8 5 -12 10 -9 6 4 8 11 5 16 -9 14 -15 11 -15 -7z"/>
<path d="M6280 3890 c0 -5 5 -10 10 -10 6 0 10 5 10 10 0 6 -4 10 -10 10 -5 0
-10 -4 -10 -10z"/>
<path d="M5025 3492 c-301 -46 -489 -133 -683 -316 -182 -171 -290 -374 -337
-635 -8 -46 -15 -102 -15 -125 0 -22 -4 -46 -8 -51 -4 -6 -45 -12 -92 -12
-323 -6 -384 -15 -378 -56 3 -24 48 -39 48 -16 0 10 3 10 12 1 14 -14 98 -16
98 -2 0 6 5 10 11 10 5 0 8 -4 5 -9 -3 -5 11 -9 32 -9 20 0 40 5 44 11 6 9 8
8 8 -1 0 -9 14 -13 43 -13 23 0 53 0 67 0 14 -1 44 2 67 6 l41 7 6 -43 c3 -24
8 -69 11 -99 14 -122 120 -362 214 -484 99 -128 278 -274 431 -351 67 -34 276
-92 370 -103 259 -29 549 47 765 203 105 75 224 198 297 308 46 67 131 225
140 257 4 14 16 59 27 100 12 41 24 100 27 130 4 30 9 58 13 62 8 8 186 20
269 18 61 -1 63 0 52 19 -6 12 -7 21 -2 21 6 0 12 -9 15 -21 4 -16 12 -20 34
-17 22 2 29 9 31 30 3 28 -11 36 -63 36 -11 0 -47 3 -80 6 -33 2 -106 8 -162
12 l-103 6 -1 57 c-1 110 -23 206 -83 366 -107 280 -353 515 -655 625 -134 49
-413 88 -516 72z m321 -152 c299 -59 569 -259 696 -515 48 -96 93 -255 112
-392 7 -49 -8 -63 -68 -63 -40 0 -66 -21 -66 -55 0 -28 27 -46 67 -44 15 1 40
1 55 0 24 -1 26 -3 18 -33 -5 -18 -18 -75 -30 -127 -42 -183 -135 -357 -251
-473 -163 -161 -385 -276 -584 -302 -195 -27 -314 -16 -480 41 -168 58 -259
117 -418 272 -136 132 -250 366 -271 555 -8 71 2 87 47 77 43 -9 64 -4 70 18
7 27 -3 37 -48 50 -27 7 -41 7 -46 0 -4 -7 -12 -5 -22 5 -17 18 -16 37 14 216
19 116 53 200 147 361 63 108 240 261 385 335 80 41 226 82 317 91 36 3 66 6
68 8 9 7 214 -10 288 -25z"/>
<path d="M5018 2988 c-1 -40 -1 -86 -1 -103 1 -16 1 -220 2 -452 l1 -423 75 0
c65 0 75 2 75 18 -1 169 12 1017 16 1023 3 5 -33 9 -80 9 l-86 0 -2 -72z"/>
<path d="M4493 2405 c-1 -390 2 -633 8 -630 5 3 73 8 151 10 79 1 240 6 358 9
118 4 296 3 395 -2 104 -4 192 -4 208 1 33 11 43 43 31 100 l-9 42 -488 1
c-268 1 -490 4 -493 7 -4 3 -6 251 -6 552 l0 545 -76 0 -77 0 -2 -635z"/>
<path d="M5280 3019 c0 -13 -3 -53 -6 -89 l-6 -65 108 -1 c92 0 116 -4 157
-23 100 -49 154 -153 145 -282 -6 -83 -39 -143 -104 -194 -56 -42 -85 -48
-203 -44 -69 3 -92 1 -96 -9 -3 -8 -5 -52 -5 -99 0 -77 2 -84 18 -78 9 4 46 9
82 11 206 10 252 33 360 174 19 25 44 56 56 70 39 44 66 183 54 273 -5 32 -22
87 -38 121 -74 159 -211 240 -424 253 l-98 6 0 -24z"/>
<path d="M5025 1615 c-4 -53 -6 -97 -4 -99 2 -2 39 -6 82 -8 l77 -5 0 94 c0
51 1 96 3 101 1 4 -32 8 -75 10 l-76 3 -7 -96z"/>
<path d="M6168 3365 c-49 -28 -63 -88 -33 -145 38 -74 137 -65 171 16 37 89
-55 175 -138 129z m99 -37 c23 -21 35 -97 13 -83 -5 3 -7 0 -4 -8 6 -18 -32
-47 -60 -47 -33 0 -66 39 -66 80 0 74 65 107 117 58z"/>
<path d="M6190 3311 c-20 -39 -6 -111 23 -111 8 0 11 16 9 52 -2 43 0 49 9 35
6 -10 8 -29 5 -43 -4 -14 -2 -24 4 -24 5 0 10 6 10 13 0 6 7 25 16 42 8 16 12
26 8 22 -4 -4 -13 2 -21 13 -18 25 -49 26 -63 1z"/>
<path d="M7707 2983 c-4 -3 -2 -13 3 -23 5 -10 6 -21 2 -25 -4 -5 -1 -5 6 -1
6 4 12 16 12 26 0 20 -13 33 -23 23z"/>
<path d="M9010 2820 c18 -30 37 -59 43 -65 15 -14 -43 87 -60 105 -8 8 0 -10
17 -40z"/>
<path d="M8786 2827 c3 -10 9 -15 12 -12 3 3 0 11 -7 18 -10 9 -11 8 -5 -6z"/>
<path d="M8811 2780 c7 -14 12 -29 11 -33 -1 -5 2 -6 7 -3 5 4 12 0 14 -6 3
-7 6 -8 6 -3 0 6 -11 24 -25 40 -22 26 -24 27 -13 5z"/>
<path d="M8646 2702 c-3 -5 1 -9 9 -9 8 0 12 4 9 9 -3 4 -7 8 -9 8 -2 0 -6 -4
-9 -8z"/>
<path d="M8855 2700 c-3 -5 -1 -10 4 -10 6 0 11 5 11 10 0 6 -2 10 -4 10 -3 0
-8 -4 -11 -10z"/>
<path d="M8789 2663 c16 -24 18 -31 7 -27 -9 3 -16 1 -16 -6 0 -6 3 -9 8 -6
19 12 80 -72 64 -89 -4 -5 -2 -5 5 -2 14 9 43 -19 43 -41 0 -12 3 -13 11 -5 9
9 -4 33 -49 96 -34 46 -69 90 -79 98 -12 10 -11 5 6 -18z"/>
<path d="M9066 2634 c9 -17 32 -49 51 -70 l35 -39 -31 45 c-17 25 -41 56 -52
70 l-21 25 18 -31z"/>
<path d="M7795 2631 c-3 -5 -1 -12 5 -16 5 -3 10 1 10 9 0 18 -6 21 -15 7z"/>
<path d="M9030 2634 c0 -13 18 -39 24 -34 2 3 -2 14 -10 24 -8 11 -14 16 -14
10z"/>
<path d="M9171 2564 c0 -11 3 -14 6 -6 3 7 2 16 -1 19 -3 4 -6 -2 -5 -13z"/>
<path d="M8960 2561 c0 -10 19 -25 25 -20 1 2 -3 10 -11 17 -8 7 -14 8 -14 3z"/>
<path d="M8981 2525 c0 -13 28 -50 33 -44 3 2 -4 15 -14 29 -11 14 -20 21 -19
15z"/>
<path d="M9171 2513 c8 -10 44 -52 80 -93 36 -41 78 -96 95 -122 16 -27 33
-48 38 -48 5 0 1 9 -8 19 -9 10 -20 30 -24 44 -7 26 -169 215 -186 216 -5 1
-3 -7 5 -16z"/>
<path d="M8950 2502 c0 -17 191 -222 207 -222 4 0 -26 35 -68 78 -41 42 -90
94 -107 115 -18 21 -32 34 -32 29z"/>
<path d="M9380 2486 c0 -2 8 -10 18 -17 15 -13 16 -12 3 4 -13 16 -21 21 -21
13z"/>
<path d="M9340 2451 c5 -11 15 -23 21 -27 6 -3 3 5 -6 20 -20 30 -30 35 -15 7z"/>
<path d="M9385 2384 c10 -17 26 -41 37 -55 l20 -24 -17 31 c-10 17 -26 41 -37
55 l-20 24 17 -31z"/>
<path d="M9369 2312 c5 -10 18 -25 28 -33 12 -10 11 -5 -6 19 -24 35 -38 43
-22 14z"/>
<path d="M9090 2272 c0 -4 10 -16 22 -27 15 -12 18 -20 10 -23 -7 -2 -12 -11
-12 -20 0 -12 3 -13 11 -5 6 6 18 9 25 6 22 -8 16 12 -13 46 -27 30 -43 39
-43 23z"/>
<path d="M9183 2263 c24 -28 117 -183 117 -197 0 -6 7 -22 16 -34 13 -18 13
-26 3 -38 -9 -12 -9 -13 2 -9 14 5 59 -53 59 -77 0 -7 5 -20 11 -28 9 -12 10
-12 5 4 -6 16 -4 17 9 6 9 -7 14 -19 11 -27 -3 -8 -2 -12 3 -9 5 4 24 -13 43
-36 18 -23 49 -58 69 -77 37 -38 129 -155 129 -165 0 -7 41 -54 95 -110 47
-47 191 -223 250 -304 22 -30 65 -82 95 -116 30 -34 74 -83 98 -110 29 -33 42
-43 42 -31 0 10 -8 25 -18 34 -31 29 -97 115 -94 124 1 5 -2 6 -7 3 -5 -3 -19
8 -32 25 -13 16 -31 38 -39 48 -8 11 -28 36 -45 57 -16 21 -46 57 -66 79 -19
22 -56 68 -82 102 -26 33 -64 79 -84 100 -50 52 -83 91 -113 133 -41 59 -112
145 -127 153 -7 5 -10 13 -7 19 4 6 2 8 -4 4 -14 -8 -178 210 -196 262 -29 82
-125 232 -149 232 -6 0 -3 -8 6 -17z"/>
<path d="M9430 2243 c0 -11 59 -93 67 -93 3 0 1 6 -5 13 -5 6 -21 30 -36 51
-14 21 -26 35 -26 29z"/>
<path d="M9400 2220 c6 -11 13 -20 16 -20 2 0 0 9 -6 20 -6 11 -13 20 -16 20
-2 0 0 -9 6 -20z"/>
<path d="M9150 2180 c-9 -6 -10 -10 -3 -10 6 0 15 5 18 10 8 12 4 12 -15 0z"/>
<path d="M8140 2150 c0 -5 5 -10 11 -10 5 0 7 5 4 10 -3 6 -8 10 -11 10 -2 0
-4 -4 -4 -10z"/>
<path d="M9163 2148 c1 -7 10 -20 20 -29 9 -9 17 -19 17 -22 0 -3 11 -18 25
-33 31 -33 33 -14 3 29 -37 55 -71 82 -65 55z"/>
<path d="M9471 2093 c24 -40 70 -104 80 -113 3 -3 38 -45 78 -95 39 -49 82
-101 95 -115 13 -14 47 -56 76 -95 29 -38 55 -72 57 -74 1 -2 6 -1 10 2 3 4
-1 15 -10 25 -9 9 -38 44 -64 77 -25 33 -49 62 -53 65 -3 3 -21 25 -40 50 -19
25 -65 80 -102 123 -36 43 -83 102 -103 132 -41 62 -59 75 -24 18z"/>
<path d="M9360 2104 c0 -3 20 -31 45 -62 25 -32 84 -106 132 -167 48 -60 89
-112 93 -115 3 -3 31 -36 62 -75 31 -38 77 -92 102 -120 25 -27 72 -86 104
-130 31 -43 76 -99 100 -124 49 -50 164 -187 206 -244 15 -21 30 -36 33 -33 3
3 -8 22 -24 43 -17 21 -34 45 -39 54 -12 21 -110 133 -149 170 -16 15 -52 60
-80 99 -53 75 -130 175 -155 200 -41 42 -180 200 -206 235 -66 91 -224 281
-224 269z"/>
<path d="M9550 2086 c0 -2 8 -10 18 -17 15 -13 16 -12 3 4 -13 16 -21 21 -21
13z"/>
<path d="M9281 2050 c-1 -21 16 -46 26 -37 4 5 3 11 -3 15 -6 4 -14 14 -17 22
-5 13 -5 13 -6 0z"/>
<path d="M9735 1996 c10 -14 19 -26 22 -26 7 0 -17 39 -28 46 -6 3 -3 -5 6
-20z"/>
<path d="M9649 1972 c5 -9 19 -26 32 -37 19 -16 18 -13 -5 18 -30 39 -43 49
-27 19z"/>
<path d="M9326 1957 c3 -10 9 -15 12 -12 3 3 0 11 -7 18 -10 9 -11 8 -5 -6z"/>
<path d="M9779 1935 c5 -11 17 -29 26 -40 l16 -20 -10 20 c-5 11 -17 29 -26
40 l-16 20 10 -20z"/>
<path d="M9710 1892 c6 -13 14 -21 18 -18 3 4 -2 14 -12 24 -18 16 -18 16 -6
-6z"/>
<path d="M9756 1887 c3 -10 9 -15 12 -12 3 3 0 11 -7 18 -10 9 -11 8 -5 -6z"/>
<path d="M8280 1876 c0 -2 9 -6 20 -9 11 -3 18 -1 14 4 -5 9 -34 13 -34 5z"/>
<path d="M8330 1859 c0 -5 5 -7 10 -4 6 3 10 8 10 11 0 2 -4 4 -10 4 -5 0 -10
-5 -10 -11z"/>
<path d="M8300 1780 c0 -5 5 -10 10 -10 6 0 10 5 10 10 0 6 -4 10 -10 10 -5 0
-10 -4 -10 -10z"/>
<path d="M8395 1780 c3 -5 8 -10 11 -10 2 0 4 5 4 10 0 6 -5 10 -11 10 -5 0
-7 -4 -4 -10z"/>
<path d="M8441 1758 c-13 -21 -13 -22 2 -10 9 8 22 10 29 6 10 -6 9 -3 -1 9
-17 21 -13 21 -30 -5z"/>
<path d="M9889 1695 c14 -30 40 -61 41 -50 0 6 -12 24 -26 40 -14 17 -21 21
-15 10z"/>
<path d="M9960 1701 c0 -5 5 -13 10 -16 6 -3 10 -2 10 4 0 5 -4 13 -10 16 -5
3 -10 2 -10 -4z"/>
<path d="M9940 1623 c0 -6 8 -17 18 -24 16 -13 16 -13 2 6 -8 11 -16 22 -17
24 -2 2 -3 0 -3 -6z"/>
<path d="M9880 1575 c7 -8 17 -15 22 -15 6 0 5 7 -2 15 -7 8 -17 15 -22 15 -6
0 -5 -7 2 -15z"/>
<path d="M9916 1535 c4 -8 11 -15 16 -15 6 0 5 6 -2 15 -7 8 -14 15 -16 15 -2
0 -1 -7 2 -15z"/>
<path d="M10030 1506 c0 -2 8 -10 18 -17 15 -13 16 -12 3 4 -13 16 -21 21 -21
13z"/>
<path d="M8675 1470 c-3 -5 -2 -10 4 -10 5 0 13 5 16 10 3 6 2 10 -4 10 -5 0
-13 -4 -16 -10z"/>
<path d="M8701 1424 c0 -11 3 -14 6 -6 3 7 2 16 -1 19 -3 4 -6 -2 -5 -13z"/>
<path d="M10035 1405 c22 -35 103 -143 125 -165 8 -8 30 -35 48 -60 17 -24 32
-40 32 -34 0 9 -190 258 -213 279 -6 6 -2 -3 8 -20z"/>
<path d="M9920 1201 c0 -11 39 -45 45 -39 3 2 -6 14 -20 26 -14 12 -25 18 -25
13z"/>
<path d="M8901 1164 c0 -11 3 -14 6 -6 3 7 2 16 -1 19 -3 4 -6 -2 -5 -13z"/>
<path d="M1820 1130 c0 -5 5 -10 11 -10 5 0 7 5 4 10 -3 6 -8 10 -11 10 -2 0
-4 -4 -4 -10z"/>
<path d="M9035 1030 c27 -12 43 -12 25 0 -8 5 -22 9 -30 9 -10 0 -8 -3 5 -9z"/>
<path d="M10193 723 c9 -9 19 -14 23 -11 10 10 -6 28 -24 28 -15 0 -15 -1 1
-17z"/>
<path d="M9246 711 c-3 -5 1 -11 9 -14 9 -4 12 -1 8 9 -6 16 -10 17 -17 5z"/>
<path d="M9290 692 c0 -11 4 -23 8 -26 10 -6 9 30 -1 40 -4 4 -7 -2 -7 -14z"/>
<path d="M5810 664 c0 -8 5 -12 10 -9 6 4 8 11 5 16 -9 14 -15 11 -15 -7z"/>
<path d="M9325 650 c3 -5 8 -10 11 -10 2 0 4 5 4 10 0 6 -5 10 -11 10 -5 0 -7
-4 -4 -10z"/>
<path d="M9859 43 c-13 -16 -12 -17 4 -4 9 7 17 15 17 17 0 8 -8 3 -21 -13z"/>
</g>
</svg>
